<svg width="110" height="12" viewBox="0 0 110 12" fill="none" xmlns="http://www.w3.org/2000/svg">
<path d="M0 10.6759V10.5901V1.2382C0 1.15241 0 1.1524 0 1.1524H0.0856678H6.76786C7.19621 1.1524 7.53888 1.2382 7.79589 1.49559C8.0529 1.75298 8.13857 2.09617 8.13857 2.52516V4.58429C8.13857 5.01327 8.0529 5.35646 7.79589 5.61385C7.62455 5.87124 7.36755 6.04284 7.02487 6.04284V6.12863C7.36755 6.12863 7.62455 6.21443 7.79589 6.47182C7.96723 6.72921 8.13857 7.0724 8.13857 7.50138V9.47472C8.13857 9.9037 8.0529 10.2469 7.79589 10.5043C7.53888 10.7617 7.19621 10.8475 6.76786 10.8475H0.0856678C0.0856678 10.7617 0 10.6759 0 10.6759ZM6.08251 5.44226C6.42519 5.44226 6.59653 5.35646 6.76786 5.18486C6.9392 5.01327 7.02487 4.75588 7.02487 4.49849V2.86835C7.02487 2.61095 6.9392 2.43936 6.85353 2.35356C6.76786 2.26777 6.59653 2.18197 6.33952 2.18197H1.02803V5.44226H6.08251ZM6.33952 9.73211C6.59653 9.73211 6.76786 9.64631 6.85353 9.56051C6.9392 9.47471 7.02487 9.30312 7.02487 9.04573V7.41559C7.02487 7.0724 6.9392 6.9008 6.76786 6.72921C6.59653 6.55762 6.33952 6.47182 6.08251 6.47182H1.02803V9.73211H6.33952Z" fill="#6E717D"/>
<path d="M11.5649 1.2382C11.5649 1.15241 11.5649 1.1524 11.5649 1.1524H11.6506H12.4216C12.5073 1.1524 12.5073 1.1524 12.5073 1.1524V1.2382V3.38313L15.5057 7.1582L18.5041 3.38313V1.2382C18.5041 1.15241 18.5041 1.1524 18.5898 1.1524H18.6755H19.4465C19.5321 1.1524 19.5321 1.1524 19.5321 1.1524V1.2382V3.72632V3.81211V3.89791L16.0197 8.10196V10.5901C16.0197 10.6759 16.0197 10.6759 16.0197 10.6759L15.934 10.7617H15.163C15.0773 10.7617 15.0773 10.7617 15.0773 10.6759V10.5901V8.10196L11.5649 3.89791C11.5649 3.89791 11.5649 3.81211 11.4792 3.81211V3.72632V1.2382H11.5649Z" fill="#6E717D"/>
<path d="M26.6435 1.32362C26.6435 1.23782 26.6435 1.23782 26.7292 1.15202C26.7292 1.15202 26.8149 1.06622 26.9005 1.06622H34.6108C34.6964 1.06622 34.6964 1.06622 34.7821 1.15202C34.7821 1.15202 34.8678 1.23782 34.8678 1.32362V3.03955C34.8678 3.12535 34.8678 3.12535 34.7821 3.21115C34.7821 3.21115 34.6964 3.29695 34.6108 3.29695H29.0423V5.01288H33.4971C33.5827 5.01288 33.5827 5.01289 33.6684 5.09868C33.6684 5.09868 33.7541 5.18448 33.7541 5.27028V6.90042C33.7541 6.98622 33.7541 6.98622 33.6684 7.07201C33.6684 7.07201 33.5827 7.15781 33.4971 7.15781H29.0423V10.7613C29.0423 10.8471 29.0423 10.8471 28.9566 10.9329C28.9566 10.9329 28.8709 11.0187 28.7853 11.0187H26.8149C26.7292 11.0187 26.7292 11.0187 26.6435 10.9329C26.6435 10.9329 26.5579 10.8471 26.5579 10.7613V1.32362H26.6435Z" fill="#6E717D"/>
<path d="M38.4658 1.32362C38.4658 1.23782 38.4658 1.23782 38.5515 1.15202C38.5515 1.15202 38.6371 1.06622 38.7228 1.06622H46.176C46.6044 1.06622 46.947 1.15202 47.204 1.40941C47.461 1.6668 47.5467 2.00999 47.5467 2.43898V6.98622C47.5467 7.4152 47.461 7.75839 47.204 8.01578C46.947 8.27317 46.6044 8.35897 46.176 8.35897H40.8645V10.5039C40.8645 10.5897 40.8645 10.5897 40.7789 10.6755C40.7789 10.6755 40.6932 10.7613 40.6075 10.7613H38.6371C38.5515 10.7613 38.5515 10.7613 38.4658 10.6755C38.4658 10.6755 38.3801 10.5897 38.3801 10.5039V1.32362H38.4658ZM44.7196 6.38564C44.891 6.38564 44.9766 6.38564 45.0623 6.29984C45.148 6.21405 45.148 6.12825 45.148 5.95665V3.64013C45.148 3.46854 45.148 3.38274 45.0623 3.29695C44.9766 3.21115 44.891 3.21115 44.7196 3.21115H40.7789V6.38564H44.7196Z" fill="#6E717D"/>
<path d="M51.2292 10.6759C51.2292 10.6759 51.1436 10.5901 51.1436 10.5043V8.78837C51.1436 8.70257 51.1436 8.70257 51.2292 8.61677C51.2292 8.61677 51.3149 8.53097 51.4006 8.53097H56.5407C56.712 8.53097 56.7977 8.53098 56.8834 8.44518C56.9691 8.35938 56.9691 8.27358 56.9691 8.10199V7.24402C56.9691 7.07242 56.9691 6.98663 56.8834 6.90083C56.7977 6.81503 56.712 6.81503 56.5407 6.81503H52.5143C52.0859 6.81503 51.7432 6.72924 51.4862 6.47185C51.2292 6.21446 51.1436 5.87127 51.1436 5.44228V2.35359C51.1436 1.9246 51.2292 1.58142 51.4862 1.32402C51.7432 1.06663 52.0859 0.980835 52.5143 0.980835H59.1108C59.1964 0.980835 59.1964 0.980835 59.2821 1.06663C59.2821 1.06663 59.3678 1.15243 59.3678 1.23823V2.95417C59.3678 3.03996 59.3678 3.03996 59.2821 3.12576C59.2821 3.12576 59.1964 3.21156 59.1108 3.21156H53.9706C53.7993 3.21156 53.7136 3.21156 53.628 3.29736C53.5423 3.38315 53.5423 3.46895 53.5423 3.64054V4.49851C53.5423 4.67011 53.5423 4.7559 53.628 4.8417C53.7136 4.9275 53.7993 4.9275 53.9706 4.9275H57.9971C58.4254 4.9275 58.7681 5.0133 59.0251 5.27069C59.2821 5.52808 59.3678 5.87127 59.3678 6.30025V9.38894C59.3678 9.81793 59.2821 10.1611 59.0251 10.4185C58.7681 10.6759 58.4254 10.7617 57.9971 10.7617H51.4006C51.3149 10.7617 51.2292 10.6759 51.2292 10.6759Z" fill="#6E717D"/>
<path d="M70.7651 1.49545C71.0221 1.75284 71.1078 2.09603 71.1078 2.52502V3.55458C71.1078 3.64038 71.1078 3.64038 71.1078 3.64038L71.0221 3.72617H70.2511C70.2511 3.72617 70.1654 3.72617 70.1654 3.64038L70.0797 3.55458V2.8682C70.0797 2.61081 69.9941 2.43922 69.9084 2.35342C69.8227 2.26762 69.6514 2.18183 69.3944 2.18183H64.6826C64.4256 2.18183 64.2542 2.26762 64.1686 2.35342C64.0829 2.43922 63.9972 2.61081 63.9972 2.8682V9.04559C63.9972 9.30298 64.0829 9.47457 64.1686 9.56037C64.2542 9.64617 64.4256 9.73197 64.6826 9.73197H69.3087C69.5657 9.73197 69.7371 9.64617 69.8227 9.56037C69.9084 9.47457 69.9941 9.30298 69.9941 9.04559V8.35921C69.9941 8.27342 69.9941 8.27342 70.0797 8.27342H70.1654H70.9364C71.0221 8.27342 71.0221 8.27342 71.0221 8.27342V8.35921V9.38878C71.0221 9.81776 70.9364 10.161 70.6794 10.4183C70.4224 10.6757 70.0797 10.7615 69.6514 10.7615H64.1686C63.7402 10.7615 63.3975 10.6757 63.1405 10.4183C62.8835 10.161 62.7979 9.81776 62.7979 9.38878V2.52502C62.7979 2.09603 62.8835 1.75284 63.1405 1.49545C63.3975 1.23806 63.7402 1.15226 64.1686 1.15226H69.6514C70.1654 1.06647 70.5081 1.23806 70.7651 1.49545ZM67.0813 6.21429C67.0813 6.12849 67.0813 6.12849 67.0813 6.12849H67.167H70.9364C71.0221 6.12849 71.0221 6.12849 71.0221 6.12849V6.21429V8.61661H69.9084V6.98646H67.0813C66.9956 6.98646 66.9956 6.98646 66.9956 6.90066V6.81487V6.21429H67.0813Z" fill="#6E717D"/>
<path d="M82.6696 1.15251V1.23831V9.30323C82.6696 9.73221 82.5839 10.0754 82.3269 10.3328C82.0699 10.5902 81.7272 10.676 81.2988 10.676H75.816C75.3877 10.676 75.045 10.5902 74.788 10.3328C74.531 10.0754 74.4453 9.73221 74.4453 9.30323V1.23831C74.4453 1.15251 74.4453 1.15251 74.4453 1.15251H74.531H75.302C75.3877 1.15251 75.3877 1.15251 75.3877 1.15251V1.23831V8.96004C75.3877 9.21743 75.4733 9.38903 75.559 9.47482C75.6447 9.56062 75.816 9.64642 76.073 9.64642H80.6992C80.9562 9.64642 81.1275 9.56062 81.2132 9.47482C81.2988 9.38903 81.3845 9.21743 81.3845 8.96004V1.23831C81.3845 1.15251 81.3845 1.15251 81.4702 1.15251H81.5559H82.3269C82.5839 1.06671 82.6696 1.15251 82.6696 1.15251Z" fill="#6E717D"/>
<path d="M86.1831 1.1524H86.2688H87.0398C87.1254 1.1524 87.1254 1.1524 87.1254 1.1524V1.2382V10.5901V10.6759L87.0398 10.7617H86.2688C86.1831 10.7617 86.1831 10.7617 86.1831 10.6759V10.5901V1.2382C86.0974 1.2382 86.1831 1.1524 86.1831 1.1524Z" fill="#6E717D"/>
<path d="M90.6382 10.6759V10.5901V1.2382C90.6382 1.15241 90.6382 1.1524 90.6382 1.1524H90.7238H97.406C97.8344 1.1524 98.1771 1.2382 98.4341 1.49559C98.6911 1.75298 98.7767 2.09617 98.7767 2.52516V9.38892C98.7767 9.8179 98.6911 10.1611 98.4341 10.4185C98.1771 10.6759 97.8344 10.7617 97.406 10.7617H90.7238C90.7238 10.7617 90.7239 10.6759 90.6382 10.6759ZM97.0634 9.73211C97.3204 9.73211 97.4917 9.64631 97.5774 9.56051C97.663 9.47471 97.7487 9.30312 97.7487 9.04573V2.86834C97.7487 2.61095 97.663 2.43936 97.5774 2.35356C97.4917 2.26777 97.3204 2.18197 97.0634 2.18197H91.7519V9.73211H97.0634Z" fill="#6E717D"/>
<path d="M102.291 10.6759V10.5901V1.2382C102.291 1.15241 102.291 1.1524 102.291 1.1524H102.376H109.915C110.001 1.1524 110.001 1.1524 110.001 1.1524V1.2382V2.01037V2.09617L109.915 2.18197H103.319V5.44226H108.63C108.716 5.44226 108.716 5.44226 108.716 5.44226V5.52805V6.30023C108.716 6.38602 108.716 6.38602 108.716 6.38602H108.63H103.319V9.73211H109.915C110.001 9.73211 110.001 9.73211 110.001 9.73211V9.8179V10.5901V10.6759L109.915 10.7617H102.376L102.291 10.6759Z" fill="#6E717D"/>
</svg>
