<svg width="207" height="16" viewBox="0 0 207 16" fill="none" xmlns="http://www.w3.org/2000/svg">
<path d="M45.1404 0.874229C45.4969 1.22396 45.6751 1.83598 45.6751 2.53543V5.33324C45.6751 5.42068 45.6751 5.50811 45.586 5.59554C45.4969 5.68297 45.4078 5.68297 45.3186 5.68297H42.11C42.0208 5.68297 41.9317 5.68297 41.8426 5.59554C41.7534 5.50811 41.7534 5.42068 41.7534 5.33324V4.28406C41.7534 4.02177 41.6643 3.93434 41.5752 3.75947C41.4861 3.67204 41.3078 3.58461 41.0404 3.58461H35.3361C35.0687 3.58461 34.9796 3.67204 34.8013 3.75947C34.7122 3.84691 34.6231 4.02177 34.6231 4.28406V11.7158C34.6231 11.9781 34.7122 12.0655 34.8013 12.2403C34.8905 12.3278 35.0687 12.4152 35.3361 12.4152H41.0404C41.3078 12.4152 41.3969 12.3278 41.5752 12.2403C41.6643 12.1529 41.7534 11.9781 41.7534 11.7158V10.6666C41.7534 10.5791 41.7534 10.4917 41.8426 10.4043C41.9317 10.3168 41.9317 10.3168 42.11 10.3168H45.3186C45.4078 10.3168 45.4969 10.3168 45.586 10.4043C45.6751 10.4917 45.6751 10.5791 45.6751 10.6666V13.4644C45.6751 14.1638 45.4969 14.6884 45.1404 15.1256C44.7838 15.4753 44.1599 15.6502 43.4469 15.6502H33.197C32.484 15.6502 31.9492 15.4753 31.5035 15.1256C31.147 14.7759 30.9688 14.1638 30.9688 13.4644V2.448C30.9688 1.74855 31.147 1.22396 31.5035 0.786797C31.86 0.43707 32.484 0.262207 33.197 0.262207H43.536C44.2491 0.262207 44.7838 0.43707 45.1404 0.874229Z" fill="white"/>
<path d="M56.0132 0.262207C56.1023 0.262207 56.1914 0.262207 56.2806 0.349639C56.3697 0.43707 56.3697 0.43707 56.3697 0.611934V12.4152H64.6588C64.7479 12.4152 64.837 12.4152 64.9262 12.5026C65.0153 12.5901 65.0153 12.6775 65.0153 12.7649V15.4753C65.0153 15.5628 65.0153 15.6502 64.9262 15.7376C64.837 15.825 64.7479 15.825 64.6588 15.825H52.8045C52.7154 15.825 52.6263 15.825 52.5371 15.7376C52.448 15.6502 52.448 15.5628 52.448 15.4753V0.611934C52.448 0.524502 52.448 0.43707 52.5371 0.349639C52.6263 0.262207 52.7154 0.262207 52.8045 0.262207H56.0132Z" fill="white"/>
<path d="M68.4927 15.563C68.4036 15.4755 68.4036 15.3881 68.4036 15.3007V2.44821C68.4036 1.74876 68.5818 1.22417 69.0275 0.787009C69.384 0.437283 70.0079 0.174988 70.7209 0.174988H80.9708C81.6839 0.174988 82.2186 0.349851 82.6643 0.787009C83.0208 1.13674 83.2882 1.74876 83.2882 2.44821V15.3007C83.2882 15.3881 83.2882 15.4755 83.1991 15.563C83.1099 15.6504 83.1099 15.6504 82.9317 15.6504H79.723C79.6339 15.6504 79.5448 15.6504 79.4556 15.563C79.3665 15.4755 79.3665 15.3881 79.3665 15.3007V10.1422H72.2361V15.3007C72.2361 15.3881 72.2361 15.4755 72.147 15.563C72.0579 15.6504 72.0579 15.6504 71.8796 15.6504H68.6709C68.5818 15.6504 68.5818 15.6504 68.4927 15.563ZM79.3665 6.90723V4.28428C79.3665 4.10941 79.2774 3.93455 79.1882 3.75969C79.0991 3.67225 78.9209 3.58482 78.6535 3.58482H72.9492C72.6818 3.58482 72.5927 3.67225 72.4144 3.75969C72.3253 3.84712 72.2361 4.02198 72.2361 4.28428V6.90723H79.3665Z" fill="white"/>
<path d="M90.1516 15.5627C90.0625 15.4753 90.0625 15.3879 90.0625 15.3005V12.5901C90.0625 12.5026 90.0625 12.4152 90.1516 12.3278C90.2408 12.2403 90.3299 12.2403 90.419 12.2403H98.8863C99.1537 12.2403 99.332 12.1529 99.4211 12.0655C99.5102 11.9781 99.5994 11.8032 99.5994 11.5409V10.2294C99.5994 9.96712 99.5102 9.87969 99.4211 9.70483C99.332 9.6174 99.1537 9.52996 98.8863 9.52996H92.3799C91.6668 9.52996 91.1321 9.3551 90.6864 9.00537C90.3299 8.65565 90.1516 8.04362 90.1516 7.34417V2.448C90.1516 1.74855 90.3299 1.22396 90.6864 0.786797C91.0429 0.43707 91.6668 0.262207 92.3799 0.262207H103.075C103.165 0.262207 103.254 0.262207 103.343 0.349639C103.432 0.43707 103.432 0.43707 103.432 0.611934V3.32232C103.432 3.40975 103.432 3.49718 103.343 3.58461C103.254 3.67204 103.254 3.67204 103.075 3.67204H94.6081C94.3407 3.67204 94.2516 3.75947 94.0733 3.84691C93.9842 3.93434 93.8951 4.1092 93.8951 4.3715V5.7704C93.8951 6.0327 93.9842 6.12013 94.0733 6.29499C94.1625 6.38242 94.3407 6.46986 94.6081 6.46986H101.115C101.828 6.46986 102.362 6.64472 102.808 6.99445C103.165 7.34417 103.343 7.95619 103.343 8.65565V13.5518C103.343 14.2513 103.165 14.7759 102.808 15.213C102.452 15.5627 101.828 15.7376 101.115 15.7376H90.419C90.3299 15.6502 90.2408 15.6502 90.1516 15.5627Z" fill="white"/>
<path d="M110.652 15.5627C110.563 15.4753 110.562 15.3879 110.562 15.3005V12.5901C110.562 12.5026 110.563 12.4152 110.652 12.3278C110.741 12.2403 110.83 12.2403 110.919 12.2403H119.386C119.654 12.2403 119.832 12.1529 119.921 12.0655C120.01 11.9781 120.099 11.8032 120.099 11.5409V10.2294C120.099 9.96712 120.01 9.87969 119.921 9.70483C119.832 9.6174 119.654 9.52996 119.386 9.52996H112.88C112.167 9.52996 111.632 9.3551 111.186 9.00537C110.83 8.65565 110.652 8.04362 110.652 7.34417V2.448C110.652 1.74855 110.83 1.22396 111.186 0.786797C111.543 0.43707 112.167 0.262207 112.88 0.262207H123.575C123.665 0.262207 123.754 0.262207 123.843 0.349639C123.932 0.43707 123.932 0.43707 123.932 0.611934V3.32232C123.932 3.40975 123.932 3.49718 123.843 3.58461C123.754 3.67204 123.754 3.67204 123.575 3.67204H115.108C114.841 3.67204 114.752 3.75947 114.573 3.84691C114.484 3.93434 114.395 4.1092 114.395 4.3715V5.7704C114.395 6.0327 114.484 6.12013 114.573 6.29499C114.662 6.38242 114.841 6.46986 115.108 6.46986H121.615C122.328 6.46986 122.862 6.64472 123.308 6.99445C123.665 7.34417 123.843 7.95619 123.843 8.65565V13.5518C123.843 14.2513 123.665 14.7759 123.308 15.213C122.952 15.5627 122.328 15.7376 121.615 15.7376H110.919C110.741 15.6502 110.652 15.6502 110.652 15.5627Z" fill="white"/>
<path d="M130.795 0.349639C130.884 0.262207 130.884 0.262207 131.062 0.262207H134.271C134.36 0.262207 134.449 0.262207 134.538 0.349639C134.628 0.43707 134.628 0.43707 134.628 0.611934V15.3879C134.628 15.4753 134.628 15.5627 134.538 15.6502C134.449 15.7376 134.36 15.7376 134.271 15.7376H131.062C130.973 15.7376 130.884 15.7376 130.795 15.6502C130.706 15.5627 130.706 15.4753 130.706 15.3879V0.611934C130.706 0.43707 130.795 0.43707 130.795 0.349639Z" fill="white"/>
<path d="M141.134 0.611934C141.134 0.524502 141.134 0.43707 141.223 0.349639C141.312 0.262207 141.401 0.262207 141.491 0.262207H154.058C154.147 0.262207 154.236 0.262207 154.325 0.349639C154.414 0.43707 154.414 0.43707 154.414 0.611934V3.32232C154.414 3.40975 154.414 3.49718 154.325 3.58461C154.236 3.67204 154.236 3.67204 154.058 3.67204H144.878V6.46986H152.097C152.186 6.46986 152.275 6.46986 152.364 6.55729C152.454 6.64472 152.454 6.64472 152.454 6.81958V9.44253C152.454 9.52996 152.454 9.6174 152.364 9.70483C152.275 9.79226 152.275 9.79226 152.097 9.79226H144.878V15.5627C144.878 15.6502 144.878 15.7376 144.788 15.825C144.699 15.9125 144.699 15.9125 144.521 15.9125H141.312C141.223 15.9125 141.134 15.9125 141.045 15.825C140.956 15.7376 140.956 15.6502 140.956 15.5627V0.611934H141.134Z" fill="white"/>
<path d="M161.365 0.349639C161.454 0.262207 161.454 0.262207 161.633 0.262207H164.841C164.93 0.262207 165.02 0.262207 165.109 0.349639C165.198 0.43707 165.198 0.43707 165.198 0.611934V15.3879C165.198 15.4753 165.198 15.5627 165.109 15.6502C165.02 15.7376 164.93 15.7376 164.841 15.7376H161.633C161.544 15.7376 161.454 15.7376 161.365 15.6502C161.276 15.5627 161.276 15.4753 161.276 15.3879V0.611934C161.276 0.43707 161.365 0.43707 161.365 0.349639Z" fill="white"/>
<path d="M171.795 15.5627C171.706 15.4753 171.706 15.3879 171.706 15.3005V0.611934C171.706 0.524502 171.706 0.43707 171.795 0.349639C171.884 0.262207 171.973 0.262207 172.062 0.262207H184.719C184.808 0.262207 184.897 0.262207 184.986 0.349639C185.075 0.43707 185.075 0.43707 185.075 0.611934V3.32232C185.075 3.40975 185.075 3.49718 184.986 3.58461C184.897 3.67204 184.808 3.67204 184.719 3.67204H175.538V6.46986H182.758C182.847 6.46986 182.936 6.46986 183.025 6.55729C183.114 6.64472 183.114 6.73215 183.114 6.81958V9.52996C183.114 9.6174 183.114 9.70483 183.025 9.79226C182.936 9.87969 182.847 9.87969 182.758 9.87969H175.538V12.5901H184.719C184.808 12.5901 184.897 12.5901 184.986 12.6775C185.075 12.7649 185.075 12.8524 185.075 12.9398V15.6502C185.075 15.7376 185.075 15.825 184.986 15.9125C184.897 15.9999 184.808 15.9999 184.719 15.9999H172.062C171.884 15.6502 171.884 15.6502 171.795 15.5627Z" fill="white"/>
<path d="M191.938 15.5627C191.849 15.4753 191.849 15.3879 191.849 15.3005V0.611934C191.849 0.524502 191.849 0.43707 191.938 0.349639C192.027 0.262207 192.116 0.262207 192.205 0.262207H204.416C205.129 0.262207 205.664 0.43707 206.11 0.786797C206.466 1.13652 206.644 1.74855 206.644 2.448V13.4644C206.644 14.1638 206.466 14.6884 206.11 15.1256C205.753 15.4753 205.129 15.6502 204.416 15.6502H192.205C192.116 15.6502 192.027 15.6502 191.938 15.5627ZM202.188 12.3278C202.455 12.3278 202.544 12.2403 202.723 12.1529C202.812 12.0655 202.901 11.8906 202.901 11.6283V4.28406C202.901 4.02177 202.812 3.93434 202.723 3.75947C202.634 3.67204 202.455 3.58461 202.188 3.58461H195.771V12.4152H202.188V12.3278Z" fill="white"/>
<path d="M14.0825 15.4754C13.9934 15.5628 13.9042 15.6503 13.726 15.6503H9.80426C9.71513 15.6503 9.626 15.5628 9.53687 15.4754C9.44775 15.388 9.44775 15.3005 9.53687 15.2131L18.3607 0.174863C18.4498 0.0874317 18.539 0 18.7172 0H22.6389C22.7281 0 22.8172 0.0874317 22.9063 0.174863C22.9955 0.262295 22.9955 0.349727 22.9063 0.437158L14.0825 15.4754ZM4.63474 15.4754C4.54561 15.5628 4.45648 15.6503 4.27822 15.6503H0.267389C0.178259 15.6503 0.0891297 15.5628 0 15.4754C0 15.4754 0 15.3005 0 15.2131L8.91297 0.174863C9.0021 0.0874317 9.09123 0 9.26949 0H13.1912C13.2803 0 13.3695 0.0874317 13.4586 0.174863C13.5477 0.262295 13.5477 0.349727 13.4586 0.437158L4.63474 15.4754Z" fill="#E07A41"/>
</svg>
