<svg width="59" height="64" viewBox="0 0 59 64" fill="none" xmlns="http://www.w3.org/2000/svg">
<mask id="mask0" mask-type="alpha" maskUnits="userSpaceOnUse" x="0" y="0" width="59" height="64">
<path d="M37.0557 26.6182C38.3645 26.3273 39.8188 26.1818 41.273 26.1818C42.4364 26.1818 43.5997 26.3273 44.7631 26.4727C42.4364 18.7636 35.1652 13.0909 26.7307 13.0909C16.2603 13.0909 7.82581 21.5273 7.82581 32C7.82581 40.5818 13.4973 47.7091 21.2047 50.0364C21.0593 49.0182 20.9138 47.8545 20.9138 46.8364C20.623 46.6909 20.3321 46.5455 20.0413 46.4L21.0593 44.6545C21.0593 43.7818 21.2047 42.9091 21.4955 42.1818C20.9138 41.8909 20.3321 41.6 19.8959 41.1636L17.7145 44.9455C16.2603 43.9273 14.9515 42.6182 13.9336 41.1636L17.7145 38.9818C17.1329 38.2545 16.6966 37.3818 16.2603 36.5091L12.4793 38.6909C11.7522 37.0909 11.1705 35.3455 11.0251 33.4545H15.3878C15.3878 33.0182 15.2424 32.4364 15.2424 32C15.2424 31.5636 15.2424 30.9818 15.3878 30.5455H11.0251C11.1705 28.6545 11.7522 26.9091 12.4793 25.3091L16.2603 27.4909C16.6966 26.6182 17.1329 25.7455 17.7145 25.0182L13.9336 22.8364C14.9515 21.3818 16.2603 20.0727 17.7145 19.0545L19.8959 22.8364C20.623 22.2545 21.4955 21.8182 22.3681 21.3818L20.1867 17.6C21.7864 16.8727 23.5314 16.2909 25.4219 16.1455V20.5091C25.8582 20.5091 26.4399 20.3636 26.8762 20.3636C27.3124 20.3636 27.8941 20.3636 28.3304 20.5091V16.1455C30.2209 16.2909 31.9659 16.8727 33.5656 17.6L31.3842 21.3818C32.2568 21.8182 33.1293 22.2545 33.8564 22.8364L36.0378 19.0545C37.492 20.0727 38.8008 21.3818 39.8188 22.8364L36.0378 25.0182C36.3286 25.4545 36.7649 26.0364 37.0557 26.6182ZM3.46314 32C3.46314 19.2 13.9336 8.72727 26.7307 8.72727C38.2191 8.72727 47.6716 17.0182 49.5621 27.9273C50.7254 28.3636 51.7434 28.9455 52.7613 29.6727C52.1797 23.7091 49.7075 18.3273 45.9265 14.2545L47.5262 12.6545L49.5621 14.6909L51.598 12.6545L43.3089 4.36364L41.273 6.4L43.4543 8.58182L41.5638 10.4727C38.51 8.29091 34.8744 6.83636 31.0934 6.25455V2.90909H34.0019V0H19.4596V2.90909H22.3681V6.25455C10.0071 8.29091 0.554688 19.0545 0.554688 32C0.554688 45.6727 11.1705 56.8727 24.5494 58.0364C23.8223 57.0182 23.2406 56 22.8043 54.8364C11.7522 52.9455 3.46314 43.4909 3.46314 32ZM41.273 29.0909C31.6751 29.0909 23.8223 36.9455 23.8223 46.5455C23.8223 56.1455 31.6751 64 41.273 64C50.8709 64 58.7237 56.1455 58.7237 46.5455C58.7237 36.9455 50.8709 29.0909 41.273 29.0909ZM52.7613 48C52.0342 53.2364 47.9624 57.4545 42.7272 58.0364V61.0909H39.8188V58.0364C34.5835 57.3091 30.3663 53.2364 29.7846 48H26.7307V45.0909H29.7846C30.5117 39.8545 34.5835 35.6364 39.8188 35.0545V32H42.7272V35.0545C47.9624 35.7818 52.1797 39.8545 52.7613 45.0909H55.8152V48H52.7613ZM49.8529 45.0909C49.2712 41.4545 46.3628 38.5455 42.7272 37.9636V40.7273H39.8188V37.9636C36.1832 38.5455 33.2748 41.4545 32.6931 45.0909H35.4561V48H32.6931C33.2748 51.6364 36.1832 54.5455 39.8188 55.1273V52.3636H42.7272V55.1273C46.3628 54.5455 49.2712 51.6364 49.8529 48H47.0899V45.0909H49.8529ZM41.273 49.4545C39.6733 49.4545 38.3645 48.1455 38.3645 46.5455C38.3645 44.9455 39.6733 43.6364 41.273 43.6364C42.8726 43.6364 44.1814 44.9455 44.1814 46.5455C44.1814 48.1455 42.8726 49.4545 41.273 49.4545Z" fill="white"/>
</mask>
<g mask="url(#mask0)">
<path d="M37.0557 26.6182C38.3645 26.3273 39.8188 26.1818 41.273 26.1818C42.4364 26.1818 43.5997 26.3273 44.7631 26.4727C42.4364 18.7636 35.1652 13.0909 26.7307 13.0909C16.2603 13.0909 7.82581 21.5273 7.82581 32C7.82581 40.5818 13.4973 47.7091 21.2047 50.0364C21.0593 49.0182 20.9138 47.8545 20.9138 46.8364C20.623 46.6909 20.3321 46.5455 20.0413 46.4L21.0593 44.6545C21.0593 43.7818 21.2047 42.9091 21.4955 42.1818C20.9138 41.8909 20.3321 41.6 19.8959 41.1636L17.7145 44.9455C16.2603 43.9273 14.9515 42.6182 13.9336 41.1636L17.7145 38.9818C17.1329 38.2545 16.6966 37.3818 16.2603 36.5091L12.4793 38.6909C11.7522 37.0909 11.1705 35.3455 11.0251 33.4545H15.3878C15.3878 33.0182 15.2424 32.4364 15.2424 32C15.2424 31.5636 15.2424 30.9818 15.3878 30.5455H11.0251C11.1705 28.6545 11.7522 26.9091 12.4793 25.3091L16.2603 27.4909C16.6966 26.6182 17.1329 25.7455 17.7145 25.0182L13.9336 22.8364C14.9515 21.3818 16.2603 20.0727 17.7145 19.0545L19.8959 22.8364C20.623 22.2545 21.4955 21.8182 22.3681 21.3818L20.1867 17.6C21.7864 16.8727 23.5314 16.2909 25.4219 16.1455V20.5091C25.8582 20.5091 26.4399 20.3636 26.8762 20.3636C27.3124 20.3636 27.8941 20.3636 28.3304 20.5091V16.1455C30.2209 16.2909 31.9659 16.8727 33.5656 17.6L31.3842 21.3818C32.2568 21.8182 33.1293 22.2545 33.8564 22.8364L36.0378 19.0545C37.492 20.0727 38.8008 21.3818 39.8188 22.8364L36.0378 25.0182C36.3286 25.4545 36.7649 26.0364 37.0557 26.6182ZM3.46314 32C3.46314 19.2 13.9336 8.72727 26.7307 8.72727C38.2191 8.72727 47.6716 17.0182 49.5621 27.9273C50.7254 28.3636 51.7434 28.9455 52.7613 29.6727C52.1797 23.7091 49.7075 18.3273 45.9265 14.2545L47.5262 12.6545L49.5621 14.6909L51.598 12.6545L43.3089 4.36364L41.273 6.4L43.4543 8.58182L41.5638 10.4727C38.51 8.29091 34.8744 6.83636 31.0934 6.25455V2.90909H34.0019V0H19.4596V2.90909H22.3681V6.25455C10.0071 8.29091 0.554688 19.0545 0.554688 32C0.554688 45.6727 11.1705 56.8727 24.5494 58.0364C23.8223 57.0182 23.2406 56 22.8043 54.8364C11.7522 52.9455 3.46314 43.4909 3.46314 32ZM41.273 29.0909C31.6751 29.0909 23.8223 36.9455 23.8223 46.5455C23.8223 56.1455 31.6751 64 41.273 64C50.8709 64 58.7237 56.1455 58.7237 46.5455C58.7237 36.9455 50.8709 29.0909 41.273 29.0909ZM52.7613 48C52.0342 53.2364 47.9624 57.4545 42.7272 58.0364V61.0909H39.8188V58.0364C34.5835 57.3091 30.3663 53.2364 29.7846 48H26.7307V45.0909H29.7846C30.5117 39.8545 34.5835 35.6364 39.8188 35.0545V32H42.7272V35.0545C47.9624 35.7818 52.1797 39.8545 52.7613 45.0909H55.8152V48H52.7613ZM49.8529 45.0909C49.2712 41.4545 46.3628 38.5455 42.7272 37.9636V40.7273H39.8188V37.9636C36.1832 38.5455 33.2748 41.4545 32.6931 45.0909H35.4561V48H32.6931C33.2748 51.6364 36.1832 54.5455 39.8188 55.1273V52.3636H42.7272V55.1273C46.3628 54.5455 49.2712 51.6364 49.8529 48H47.0899V45.0909H49.8529ZM41.273 49.4545C39.6733 49.4545 38.3645 48.1455 38.3645 46.5455C38.3645 44.9455 39.6733 43.6364 41.273 43.6364C42.8726 43.6364 44.1814 44.9455 44.1814 46.5455C44.1814 48.1455 42.8726 49.4545 41.273 49.4545Z" fill="white"/>
<circle cx="42.127" cy="47.1381" r="20" fill="url(#paint0_linear)"/>
</g>
<defs>
<linearGradient id="paint0_linear" x1="22.127" y1="31.3047" x2="61.8797" y2="31.8572" gradientUnits="userSpaceOnUse">
<stop stop-color="#F39560"/>
<stop offset="1" stop-color="#E07A41"/>
</linearGradient>
</defs>
</svg>
