<svg width="65" height="57" viewBox="0 0 65 57" fill="none" xmlns="http://www.w3.org/2000/svg">
<mask id="mask0" mask-type="alpha" maskUnits="userSpaceOnUse" x="0" y="0" width="65" height="57">
<path d="M64.3829 2.23303C64.0853 1.48869 63.639 0.893214 62.8951 0.595476C62.2999 0.297739 61.7048 0.148866 60.9609 0.148866H50.8436C49.2069 0.148866 48.0167 1.04208 47.4215 1.9353L36.5603 19.7995C37.8994 19.204 39.3872 18.7574 40.8751 18.3108L49.8021 3.57285C49.9509 3.42398 50.2484 2.97737 50.6948 2.97737H60.8121C60.9608 2.97737 61.1096 2.97737 61.1096 3.12624C61.1096 3.12624 61.2584 3.27511 61.4072 3.42398C61.4072 3.57285 61.4072 3.72171 61.4072 3.72171C61.4072 3.72171 61.4072 3.87058 61.4072 4.01945L52.1826 19.204C53.0753 19.5018 54.1168 19.9484 54.8607 20.395L63.7877 5.65701L63.9365 5.50813C64.2341 5.06153 64.3829 4.46605 64.3829 3.87058C64.6805 3.12624 64.5317 2.67963 64.3829 2.23303ZM40.2799 5.50813C40.5775 4.91266 40.7263 4.46606 40.7263 4.16832C40.8751 3.57285 40.7263 2.97737 40.5775 2.38189L40.2799 1.78642C40.1312 1.63755 39.8336 1.04208 39.2384 0.595476C38.6433 0.148871 37.8994 0 37.1555 0H27.0382C25.4016 0 24.2113 0.893207 23.6161 1.78642L1.00104 39.1524C0.405904 40.1945 0.405904 41.5343 1.00104 42.7253C1.59617 43.9162 2.78644 44.6606 4.27427 44.6606H14.3916C16.0282 44.6606 17.2185 43.7674 17.8136 42.8741L40.2799 5.50813ZM15.433 41.0877C15.2843 41.3855 14.8379 41.6832 14.3916 41.6832H4.42307C4.27428 41.6832 3.97673 41.6832 3.82794 41.3855C3.82794 41.2366 3.67916 40.9389 3.82794 40.6411L26.2943 3.57285C26.443 3.42398 26.7406 2.97737 27.187 2.97737H37.3043C37.6018 2.97737 37.6018 2.97737 37.7506 3.12624L37.8994 3.2751C37.8994 3.42397 37.8994 3.57285 37.8994 3.57285C37.8994 3.57285 37.8994 3.72171 37.7506 3.87058L15.433 41.0877ZM44.4459 20.8416C34.6261 20.8416 26.5918 28.8805 26.5918 38.7058C26.5918 48.5311 34.6261 56.57 44.4459 56.57C54.2656 56.57 62.2999 48.5311 62.2999 38.7058C62.2999 28.8805 54.4144 20.8416 44.4459 20.8416ZM59.3242 40.1945H56.1998C55.4559 45.5538 51.2899 49.871 45.9337 50.4664V53.5927H42.958V50.6153C37.6018 49.871 33.2871 45.7026 32.692 40.3434H29.5675V37.366H32.692C33.4359 32.0067 37.6018 27.6895 42.958 27.0941V23.819H45.9337V26.9452C51.2899 27.6895 55.6046 31.8579 56.1998 37.2171H59.3242V40.1945ZM53.2241 37.2171C52.629 33.4954 49.6533 30.5181 45.9337 29.9226V32.7511H42.958V29.9226C39.2384 30.5181 36.2628 33.4954 35.6676 37.2171H38.4945V40.1945H35.6676C36.2628 43.9162 39.2384 46.8936 42.958 47.4891V44.6606H45.9337V47.4891C49.6533 46.8936 52.629 43.9162 53.2241 40.1945H50.3972V37.2171H53.2241ZM44.4459 41.6832C42.8092 41.6832 41.4702 40.3434 41.4702 38.7058C41.4702 37.0683 42.8092 35.7285 44.4459 35.7285C46.0825 35.7285 47.4215 37.0683 47.4215 38.7058C47.4215 40.3434 46.0825 41.6832 44.4459 41.6832Z" fill="white"/>
</mask>
<g mask="url(#mask0)">
<path d="M64.3829 2.23303C64.0853 1.48869 63.639 0.893214 62.8951 0.595476C62.2999 0.297739 61.7048 0.148866 60.9609 0.148866H50.8436C49.2069 0.148866 48.0167 1.04208 47.4215 1.9353L36.5603 19.7995C37.8994 19.204 39.3872 18.7574 40.8751 18.3108L49.8021 3.57285C49.9509 3.42398 50.2484 2.97737 50.6948 2.97737H60.8121C60.9608 2.97737 61.1096 2.97737 61.1096 3.12624C61.1096 3.12624 61.2584 3.27511 61.4072 3.42398C61.4072 3.57285 61.4072 3.72171 61.4072 3.72171C61.4072 3.72171 61.4072 3.87058 61.4072 4.01945L52.1826 19.204C53.0753 19.5018 54.1168 19.9484 54.8607 20.395L63.7877 5.65701L63.9365 5.50813C64.2341 5.06153 64.3829 4.46605 64.3829 3.87058C64.6805 3.12624 64.5317 2.67963 64.3829 2.23303ZM40.2799 5.50813C40.5775 4.91266 40.7263 4.46606 40.7263 4.16832C40.8751 3.57285 40.7263 2.97737 40.5775 2.38189L40.2799 1.78642C40.1312 1.63755 39.8336 1.04208 39.2384 0.595476C38.6433 0.148871 37.8994 0 37.1555 0H27.0382C25.4016 0 24.2113 0.893207 23.6161 1.78642L1.00104 39.1524C0.405904 40.1945 0.405904 41.5343 1.00104 42.7253C1.59617 43.9162 2.78644 44.6606 4.27427 44.6606H14.3916C16.0282 44.6606 17.2185 43.7674 17.8136 42.8741L40.2799 5.50813ZM15.433 41.0877C15.2843 41.3855 14.8379 41.6832 14.3916 41.6832H4.42307C4.27428 41.6832 3.97673 41.6832 3.82794 41.3855C3.82794 41.2366 3.67916 40.9389 3.82794 40.6411L26.2943 3.57285C26.443 3.42398 26.7406 2.97737 27.187 2.97737H37.3043C37.6018 2.97737 37.6018 2.97737 37.7506 3.12624L37.8994 3.2751C37.8994 3.42397 37.8994 3.57285 37.8994 3.57285C37.8994 3.57285 37.8994 3.72171 37.7506 3.87058L15.433 41.0877ZM44.4459 20.8416C34.6261 20.8416 26.5918 28.8805 26.5918 38.7058C26.5918 48.5311 34.6261 56.57 44.4459 56.57C54.2656 56.57 62.2999 48.5311 62.2999 38.7058C62.2999 28.8805 54.4144 20.8416 44.4459 20.8416ZM59.3242 40.1945H56.1998C55.4559 45.5538 51.2899 49.871 45.9337 50.4664V53.5927H42.958V50.6153C37.6018 49.871 33.2871 45.7026 32.692 40.3434H29.5675V37.366H32.692C33.4359 32.0067 37.6018 27.6895 42.958 27.0941V23.819H45.9337V26.9452C51.2899 27.6895 55.6046 31.8579 56.1998 37.2171H59.3242V40.1945ZM53.2241 37.2171C52.629 33.4954 49.6533 30.5181 45.9337 29.9226V32.7511H42.958V29.9226C39.2384 30.5181 36.2628 33.4954 35.6676 37.2171H38.4945V40.1945H35.6676C36.2628 43.9162 39.2384 46.8936 42.958 47.4891V44.6606H45.9337V47.4891C49.6533 46.8936 52.629 43.9162 53.2241 40.1945H50.3972V37.2171H53.2241ZM44.4459 41.6832C42.8092 41.6832 41.4702 40.3434 41.4702 38.7058C41.4702 37.0683 42.8092 35.7285 44.4459 35.7285C46.0825 35.7285 47.4215 37.0683 47.4215 38.7058C47.4215 40.3434 46.0825 41.6832 44.4459 41.6832Z" fill="white"/>
<circle cx="44.5059" cy="39" r="20" fill="url(#paint0_linear)"/>
</g>
<defs>
<linearGradient id="paint0_linear" x1="24.5059" y1="23.1667" x2="64.2586" y2="23.7192" gradientUnits="userSpaceOnUse">
<stop stop-color="#F39560"/>
<stop offset="1" stop-color="#E07A41"/>
</linearGradient>
</defs>
</svg>
