<svg width="59" height="64" viewBox="0 0 59 64" fill="none" xmlns="http://www.w3.org/2000/svg">
<mask id="mask0" mask-type="alpha" maskUnits="userSpaceOnUse" x="0" y="0" width="59" height="64">
<path d="M29.3472 22.7048C31.3382 22.7048 33.1761 23.3143 34.7076 24.381C35.4734 24.9905 36.2391 25.7524 36.8517 26.5143C37.9238 28.0381 38.5364 29.8667 38.5364 31.8476C38.5364 33.8286 37.9238 35.6571 36.8517 37.1809C36.2391 37.9428 35.6265 38.7047 34.7076 39.3143C33.6355 40.0762 32.2571 40.5333 30.8788 40.8381C30.4193 40.9905 29.8067 40.9905 29.3472 40.9905C28.8878 40.9905 28.2752 40.9905 27.8157 40.8381C26.4373 40.6857 25.0589 40.0762 23.9869 39.3143C23.2211 38.7047 22.4553 37.9428 21.8427 37.1809C20.7706 35.6571 20.158 33.8286 20.158 31.8476C20.158 29.8667 20.7706 28.0381 21.8427 26.5143C22.4553 25.7524 23.0679 24.9905 23.9869 24.381C25.5184 23.3143 27.3562 22.7048 29.3472 22.7048Z" fill="white"/>
<path fill-rule="evenodd" clip-rule="evenodd" d="M49.2575 49.5238C50.1764 48.9143 51.2485 48.6095 52.3205 48.6095C55.6899 48.6095 58.4467 51.3524 58.4467 54.7048C58.4467 58.0571 55.6899 60.8 52.3205 60.8C48.9512 60.8 46.1944 58.0571 46.1944 54.7048C46.1944 53.6381 46.5007 52.5714 47.1133 51.6571L41.1403 45.7143C38.2304 47.3905 34.7079 48.3048 31.0322 48.6095V51.9619C33.6358 52.7238 35.6268 55.0095 35.6268 57.9048C35.6268 61.2571 32.8701 64 29.5007 64C26.1313 64 23.3746 61.2571 23.3746 57.9048C23.3746 55.0095 25.3656 52.5714 27.9692 51.9619V48.6095C24.2935 48.4571 20.9241 47.3905 17.861 45.7143L11.8881 51.6571C12.5007 52.5714 12.807 53.6381 12.807 54.7048C12.807 58.0571 10.0502 60.8 6.68082 60.8C3.31145 60.8 0.554688 58.0571 0.554688 54.7048C0.554688 51.3524 3.31145 48.6095 6.68082 48.6095C7.7529 48.6095 8.82497 48.9143 9.74389 49.5238L15.2574 44.0381C11.2754 41.1428 8.21236 36.8762 6.68082 32C8.0592 27.1238 11.1223 23.0095 15.2574 19.9619L9.74389 14.4762C8.82497 15.0857 7.7529 15.3905 6.68082 15.3905C3.31145 15.3905 0.554688 12.6476 0.554688 9.29522C0.554688 5.94284 3.31145 3.19999 6.68082 3.19999C10.0502 3.19999 12.807 5.94284 12.807 9.29522C12.807 10.3619 12.5007 11.4286 11.8881 12.3428L17.861 18.2857C20.7709 16.6095 24.2935 15.6952 27.9692 15.3905V12.0381C25.3656 11.2762 23.3746 8.99048 23.3746 6.09524C23.3746 2.74286 26.1313 0 29.5007 0C32.8701 0 35.6268 2.74286 35.6268 6.09524C35.6268 8.99048 33.6358 11.4286 31.0322 12.0381V15.3905C34.7079 15.5428 38.0773 16.6095 41.1403 18.2857L47.1133 12.3428C46.5007 11.4286 46.1944 10.3619 46.1944 9.29522C46.1944 5.94284 48.9512 3.19999 52.3205 3.19999C55.6899 3.19999 58.4467 5.94284 58.4467 9.29522C58.4467 12.6476 55.6899 15.3905 52.3205 15.3905C51.2485 15.3905 50.1764 15.0857 49.2575 14.4762L43.7439 19.9619C47.7259 22.8571 50.789 27.1238 52.3205 32C50.9422 36.8762 47.8791 41.1428 43.7439 44.0381L49.2575 49.5238ZM52.3205 5.94285C50.6359 5.94285 49.2575 7.31428 49.2575 8.99047C49.2575 9.29523 49.2575 9.59999 49.4106 9.75237C49.7169 10.819 50.4827 11.5809 51.5548 11.8857C51.7079 12.0381 52.0142 12.0381 52.3205 12.0381C54.0052 12.0381 55.3836 10.6667 55.3836 8.99047C55.3836 8.83809 55.3453 8.7238 55.307 8.60951C55.2687 8.49523 55.2304 8.38094 55.2304 8.22856C54.9241 7.1619 54.1584 6.4 53.0863 6.09524C52.78 5.94286 52.6269 5.94285 52.3205 5.94285ZM3.31145 8.99047C3.31145 10.6667 4.68983 12.0381 6.37452 12.0381C6.68083 12.0381 6.98714 12.0381 7.14029 11.8857C8.21236 11.5809 8.97812 10.819 9.28443 9.75237C9.43758 9.59999 9.43759 9.29523 9.43759 8.99047C9.43759 7.31428 8.05921 5.94285 6.37452 5.94285C6.22137 5.94285 6.1065 5.98095 5.99164 6.01904C5.87677 6.05714 5.76191 6.09524 5.60875 6.09524C4.53668 6.4 3.77092 7.1619 3.46462 8.22856C3.31146 8.53332 3.31145 8.68571 3.31145 8.99047ZM6.37452 57.7524C8.05921 57.7524 9.43759 56.3809 9.43759 54.7048C9.43759 54.4 9.43758 54.2476 9.28443 53.9428C8.97812 52.8762 8.21236 52.1143 7.14029 51.8095C6.83398 51.6571 6.68083 51.6571 6.37452 51.6571C4.68983 51.6571 3.31145 53.0286 3.31145 54.7048C3.31145 54.8571 3.34974 54.9714 3.38803 55.0857C3.42633 55.2 3.46462 55.3143 3.46462 55.4667C3.77092 56.5333 4.53668 57.2952 5.60875 57.6C5.76191 57.7524 6.06821 57.7524 6.37452 57.7524ZM29.3475 2.89523C27.6628 2.89523 26.2845 4.26666 26.2845 5.94285C26.2845 7.00951 26.8971 8.07618 27.816 8.53332C28.2755 8.83808 28.7349 8.99047 29.3475 8.99047C29.9601 8.99047 30.4196 8.83808 30.8791 8.53332C31.798 8.07618 32.4106 7.00951 32.4106 5.94285C32.4106 4.26666 31.0322 2.89523 29.3475 2.89523ZM29.3475 60.8C31.0322 60.8 32.4106 59.4286 32.4106 57.7524C32.4106 56.6857 31.798 55.619 30.8791 55.1619C30.4196 54.8571 29.9601 54.7048 29.3475 54.7048C28.7349 54.7048 28.2755 54.8571 27.816 55.1619C26.8971 55.619 26.2845 56.6857 26.2845 57.7524C26.2845 59.4286 27.6628 60.8 29.3475 60.8ZM30.8791 45.5619C33.789 45.4095 36.3926 44.6476 38.843 43.4286C39.3025 43.2 39.762 42.9333 40.2214 42.6667C40.6809 42.4 41.1403 42.1333 41.5998 41.9048C45.1223 39.4667 47.8791 35.9619 49.2575 32C47.7259 28.0381 45.1223 24.5333 41.5998 22.0952C41.1403 21.8667 40.6809 21.6 40.2214 21.3333C39.762 21.0667 39.3025 20.8 38.843 20.5714C35.9331 19.2 32.8701 18.4381 29.3475 18.4381C25.825 18.4381 22.7619 19.2 19.852 20.5714C18.9331 20.8762 18.0142 21.4857 17.0953 22.0952C13.5727 24.5333 10.816 28.0381 9.43759 32C10.9691 35.9619 13.5727 39.4667 17.0953 41.9048C17.5547 42.1333 18.0142 42.4 18.4736 42.6667C18.9331 42.9333 19.3926 43.2 19.852 43.4286C22.3025 44.6476 25.0592 45.4095 27.816 45.5619H30.8791ZM52.7034 57.6762C52.8183 57.6381 52.9332 57.6 53.0863 57.6C54.1584 57.2952 55.0773 56.5333 55.2304 55.4667C55.3836 55.3143 55.3836 55.0095 55.3836 54.7048C55.3836 53.0286 54.0052 51.6571 52.3205 51.6571C52.1674 51.6571 52.0525 51.6952 51.9377 51.7333C51.8228 51.7714 51.7079 51.8095 51.5548 51.8095C50.4827 52.1143 49.7169 52.8762 49.4106 53.9428C49.2575 54.2476 49.2575 54.4 49.2575 54.7048C49.2575 56.3809 50.6359 57.7524 52.3205 57.7524C52.4737 57.7524 52.5886 57.7143 52.7034 57.6762Z" fill="white"/>
</mask>
<g mask="url(#mask0)">
<path d="M29.3472 22.7048C31.3382 22.7048 33.1761 23.3143 34.7076 24.381C35.4734 24.9905 36.2391 25.7524 36.8517 26.5143C37.9238 28.0381 38.5364 29.8667 38.5364 31.8476C38.5364 33.8286 37.9238 35.6571 36.8517 37.1809C36.2391 37.9428 35.6265 38.7047 34.7076 39.3143C33.6355 40.0762 32.2571 40.5333 30.8788 40.8381C30.4193 40.9905 29.8067 40.9905 29.3472 40.9905C28.8878 40.9905 28.2752 40.9905 27.8157 40.8381C26.4373 40.6857 25.0589 40.0762 23.9869 39.3143C23.2211 38.7047 22.4553 37.9428 21.8427 37.1809C20.7706 35.6571 20.158 33.8286 20.158 31.8476C20.158 29.8667 20.7706 28.0381 21.8427 26.5143C22.4553 25.7524 23.0679 24.9905 23.9869 24.381C25.5184 23.3143 27.3562 22.7048 29.3472 22.7048Z" fill="white"/>
<path fill-rule="evenodd" clip-rule="evenodd" d="M49.2575 49.5238C50.1764 48.9143 51.2485 48.6095 52.3205 48.6095C55.6899 48.6095 58.4467 51.3524 58.4467 54.7048C58.4467 58.0571 55.6899 60.8 52.3205 60.8C48.9512 60.8 46.1944 58.0571 46.1944 54.7048C46.1944 53.6381 46.5007 52.5714 47.1133 51.6571L41.1403 45.7143C38.2304 47.3905 34.7079 48.3048 31.0322 48.6095V51.9619C33.6358 52.7238 35.6268 55.0095 35.6268 57.9048C35.6268 61.2571 32.8701 64 29.5007 64C26.1313 64 23.3746 61.2571 23.3746 57.9048C23.3746 55.0095 25.3656 52.5714 27.9692 51.9619V48.6095C24.2935 48.4571 20.9241 47.3905 17.861 45.7143L11.8881 51.6571C12.5007 52.5714 12.807 53.6381 12.807 54.7048C12.807 58.0571 10.0502 60.8 6.68082 60.8C3.31145 60.8 0.554688 58.0571 0.554688 54.7048C0.554688 51.3524 3.31145 48.6095 6.68082 48.6095C7.7529 48.6095 8.82497 48.9143 9.74389 49.5238L15.2574 44.0381C11.2754 41.1428 8.21236 36.8762 6.68082 32C8.0592 27.1238 11.1223 23.0095 15.2574 19.9619L9.74389 14.4762C8.82497 15.0857 7.7529 15.3905 6.68082 15.3905C3.31145 15.3905 0.554688 12.6476 0.554688 9.29522C0.554688 5.94284 3.31145 3.19999 6.68082 3.19999C10.0502 3.19999 12.807 5.94284 12.807 9.29522C12.807 10.3619 12.5007 11.4286 11.8881 12.3428L17.861 18.2857C20.7709 16.6095 24.2935 15.6952 27.9692 15.3905V12.0381C25.3656 11.2762 23.3746 8.99048 23.3746 6.09524C23.3746 2.74286 26.1313 0 29.5007 0C32.8701 0 35.6268 2.74286 35.6268 6.09524C35.6268 8.99048 33.6358 11.4286 31.0322 12.0381V15.3905C34.7079 15.5428 38.0773 16.6095 41.1403 18.2857L47.1133 12.3428C46.5007 11.4286 46.1944 10.3619 46.1944 9.29522C46.1944 5.94284 48.9512 3.19999 52.3205 3.19999C55.6899 3.19999 58.4467 5.94284 58.4467 9.29522C58.4467 12.6476 55.6899 15.3905 52.3205 15.3905C51.2485 15.3905 50.1764 15.0857 49.2575 14.4762L43.7439 19.9619C47.7259 22.8571 50.789 27.1238 52.3205 32C50.9422 36.8762 47.8791 41.1428 43.7439 44.0381L49.2575 49.5238ZM52.3205 5.94285C50.6359 5.94285 49.2575 7.31428 49.2575 8.99047C49.2575 9.29523 49.2575 9.59999 49.4106 9.75237C49.7169 10.819 50.4827 11.5809 51.5548 11.8857C51.7079 12.0381 52.0142 12.0381 52.3205 12.0381C54.0052 12.0381 55.3836 10.6667 55.3836 8.99047C55.3836 8.83809 55.3453 8.7238 55.307 8.60951C55.2687 8.49523 55.2304 8.38094 55.2304 8.22856C54.9241 7.1619 54.1584 6.4 53.0863 6.09524C52.78 5.94286 52.6269 5.94285 52.3205 5.94285ZM3.31145 8.99047C3.31145 10.6667 4.68983 12.0381 6.37452 12.0381C6.68083 12.0381 6.98714 12.0381 7.14029 11.8857C8.21236 11.5809 8.97812 10.819 9.28443 9.75237C9.43758 9.59999 9.43759 9.29523 9.43759 8.99047C9.43759 7.31428 8.05921 5.94285 6.37452 5.94285C6.22137 5.94285 6.1065 5.98095 5.99164 6.01904C5.87677 6.05714 5.76191 6.09524 5.60875 6.09524C4.53668 6.4 3.77092 7.1619 3.46462 8.22856C3.31146 8.53332 3.31145 8.68571 3.31145 8.99047ZM6.37452 57.7524C8.05921 57.7524 9.43759 56.3809 9.43759 54.7048C9.43759 54.4 9.43758 54.2476 9.28443 53.9428C8.97812 52.8762 8.21236 52.1143 7.14029 51.8095C6.83398 51.6571 6.68083 51.6571 6.37452 51.6571C4.68983 51.6571 3.31145 53.0286 3.31145 54.7048C3.31145 54.8571 3.34974 54.9714 3.38803 55.0857C3.42633 55.2 3.46462 55.3143 3.46462 55.4667C3.77092 56.5333 4.53668 57.2952 5.60875 57.6C5.76191 57.7524 6.06821 57.7524 6.37452 57.7524ZM29.3475 2.89523C27.6628 2.89523 26.2845 4.26666 26.2845 5.94285C26.2845 7.00951 26.8971 8.07618 27.816 8.53332C28.2755 8.83808 28.7349 8.99047 29.3475 8.99047C29.9601 8.99047 30.4196 8.83808 30.8791 8.53332C31.798 8.07618 32.4106 7.00951 32.4106 5.94285C32.4106 4.26666 31.0322 2.89523 29.3475 2.89523ZM29.3475 60.8C31.0322 60.8 32.4106 59.4286 32.4106 57.7524C32.4106 56.6857 31.798 55.619 30.8791 55.1619C30.4196 54.8571 29.9601 54.7048 29.3475 54.7048C28.7349 54.7048 28.2755 54.8571 27.816 55.1619C26.8971 55.619 26.2845 56.6857 26.2845 57.7524C26.2845 59.4286 27.6628 60.8 29.3475 60.8ZM30.8791 45.5619C33.789 45.4095 36.3926 44.6476 38.843 43.4286C39.3025 43.2 39.762 42.9333 40.2214 42.6667C40.6809 42.4 41.1403 42.1333 41.5998 41.9048C45.1223 39.4667 47.8791 35.9619 49.2575 32C47.7259 28.0381 45.1223 24.5333 41.5998 22.0952C41.1403 21.8667 40.6809 21.6 40.2214 21.3333C39.762 21.0667 39.3025 20.8 38.843 20.5714C35.9331 19.2 32.8701 18.4381 29.3475 18.4381C25.825 18.4381 22.7619 19.2 19.852 20.5714C18.9331 20.8762 18.0142 21.4857 17.0953 22.0952C13.5727 24.5333 10.816 28.0381 9.43759 32C10.9691 35.9619 13.5727 39.4667 17.0953 41.9048C17.5547 42.1333 18.0142 42.4 18.4736 42.6667C18.9331 42.9333 19.3926 43.2 19.852 43.4286C22.3025 44.6476 25.0592 45.4095 27.816 45.5619H30.8791ZM52.7034 57.6762C52.8183 57.6381 52.9332 57.6 53.0863 57.6C54.1584 57.2952 55.0773 56.5333 55.2304 55.4667C55.3836 55.3143 55.3836 55.0095 55.3836 54.7048C55.3836 53.0286 54.0052 51.6571 52.3205 51.6571C52.1674 51.6571 52.0525 51.6952 51.9377 51.7333C51.8228 51.7714 51.7079 51.8095 51.5548 51.8095C50.4827 52.1143 49.7169 52.8762 49.4106 53.9428C49.2575 54.2476 49.2575 54.4 49.2575 54.7048C49.2575 56.3809 50.6359 57.7524 52.3205 57.7524C52.4737 57.7524 52.5886 57.7143 52.7034 57.6762Z" fill="white"/>
<circle cx="29.5547" cy="32" r="11" fill="url(#paint0_linear)"/>
</g>
<defs>
<linearGradient id="paint0_linear" x1="18.5547" y1="23.2917" x2="40.4187" y2="23.5955" gradientUnits="userSpaceOnUse">
<stop stop-color="#F39560"/>
<stop offset="1" stop-color="#E07A41"/>
</linearGradient>
</defs>
</svg>
