<svg width="65" height="64" viewBox="0 0 65 64" fill="none" xmlns="http://www.w3.org/2000/svg">
<path d="M27.2331 23.5994C27.8499 24.2163 28.7752 24.2163 29.392 23.5994L30.9341 22.0569C31.2425 21.7484 31.3967 21.44 31.3967 20.9772V13.882C31.3967 12.9565 30.6257 12.3395 29.8546 12.3395H26.7704C25.9994 12.3395 25.2283 12.9565 25.2283 13.882V20.9772C25.2283 21.44 25.3825 21.7484 25.691 22.0569L27.2331 23.5994ZM26.7704 43.1884H29.8546C30.6257 43.1884 31.3967 42.5714 31.3967 41.6459V34.5507C31.3967 34.088 31.2425 33.7795 30.9341 33.471L29.392 31.9286C28.7752 31.3116 27.8499 31.3116 27.2331 31.9286L25.691 33.471C25.3825 33.7795 25.2283 34.2422 25.2283 34.5507V41.6459C25.2283 42.5714 25.9994 43.1884 26.7704 43.1884ZM33.5557 30.8488H40.6494C41.4204 30.8488 42.1915 30.2319 42.1915 29.3064V26.2215C42.1915 25.2961 41.4204 24.6791 40.6494 24.6791H33.5557C33.0931 24.6791 32.7846 24.8333 32.4762 25.1418L30.9341 26.6843C30.3173 27.3012 30.3173 28.2267 30.9341 28.8437L32.4762 30.3861C32.7846 30.6946 33.2473 30.8488 33.5557 30.8488ZM23.0694 24.6791H15.9757C15.2047 24.6791 14.4336 25.2961 14.4336 26.2215V29.3064C14.4336 30.2319 15.2047 30.8488 15.9757 30.8488H23.0694C23.532 30.8488 23.8404 30.6946 24.1489 30.3861L25.691 28.8437C26.3078 28.2267 26.3078 27.3012 25.691 26.6843L24.1489 25.1418C23.8404 24.8333 23.3778 24.6791 23.0694 24.6791ZM28.3125 58.3043C13.8168 50.9006 3.63889 35.1677 3.63889 16.6584C3.63889 13.882 3.94731 11.1056 4.40994 8.32919C11.6578 4.93582 19.831 3.08488 28.621 3.08488C37.1025 3.08488 45.1215 4.93582 52.2151 8.0207C52.6778 10.7971 52.9862 13.7277 52.9862 16.6584C52.9862 21.5942 52.2151 26.3758 50.8272 30.8488C51.1356 30.8488 51.2899 30.8488 51.5983 30.8488C51.7525 30.8488 51.9067 30.8488 52.0609 30.8488C52.2151 30.8488 52.3693 30.8488 52.6778 30.8488C52.9862 30.8488 53.1404 30.8488 53.4488 31.0031C53.603 31.0031 53.7572 31.0031 53.9114 31.1573C55.2993 26.53 55.9162 21.5942 55.9162 16.5041C55.9162 12.8023 55.6077 9.25465 54.8367 5.70704C47.1262 2.15942 38.182 0 28.621 0C18.9057 0 9.65309 2.31366 1.63416 6.32401C0.863108 9.56314 0.554688 13.1108 0.554688 16.6584C0.554688 36.7101 11.9662 54.1397 28.3125 61.6977C30.1631 60.7722 32.1678 59.8468 33.8641 58.6128C33.4015 57.6873 32.9388 56.7619 32.4762 55.8364C31.2425 56.7619 29.8546 57.5331 28.3125 58.3043Z" fill="white"/>
<path fill-rule="evenodd" clip-rule="evenodd" d="M49.1337 33.0314C40.6521 33.0314 33.7126 39.9724 33.7126 48.4559C33.7126 56.9393 40.6521 63.8803 49.1337 63.8803C57.6152 63.8803 64.5547 56.9393 64.5547 48.4559C64.5547 39.9724 57.6152 33.0314 49.1337 33.0314ZM46.0495 43.8285H56.8442V40.7436H50.6758V37.6588H47.5916V40.7436H46.0495C43.4279 40.7436 41.4232 42.7488 41.4232 45.371C41.4232 47.9931 43.4279 49.9983 46.0495 49.9983H52.2179C52.9889 49.9983 53.76 50.7695 53.76 51.5407C53.76 52.4662 52.9889 53.0832 52.2179 53.0832H41.4232V56.1681H47.5916V59.253H50.6758V56.1681H52.2179C54.8395 56.1681 56.8442 54.1629 56.8442 51.5407C56.8442 48.9186 54.8395 46.9134 52.2179 46.9134H46.0495C45.2784 46.9134 44.5074 46.2964 44.5074 45.371C44.5074 44.5998 45.2784 43.8285 46.0495 43.8285Z" fill="url(#paint0_linear)"/>
<defs>
<linearGradient id="paint0_linear" x1="33.7126" y1="36.2449" x2="64.3641" y2="36.6708" gradientUnits="userSpaceOnUse">
<stop stop-color="#F39560"/>
<stop offset="1" stop-color="#E07A41"/>
</linearGradient>
</defs>
</svg>
