<svg width="18" height="18" viewBox="0 0 18 18" fill="none" xmlns="http://www.w3.org/2000/svg">
<path d="M14.4882 12.3029C14.0482 11.8626 13.5341 11.5032 12.9694 11.2412C13.7657 10.5961 14.2737 9.6117 14.2737 8.5078C14.2737 6.56014 12.6495 4.96229 10.7019 4.99217C8.78408 5.02206 7.23896 6.58475 7.23896 8.5078C7.23896 9.6117 7.74873 10.5961 8.54326 11.2412C7.97848 11.503 7.46435 11.8624 7.02451 12.3029C6.06474 13.2644 5.51982 14.5336 5.48466 15.8871C5.48419 15.9059 5.48749 15.9245 5.49434 15.942C5.5012 15.9595 5.51148 15.9754 5.52459 15.9888C5.53769 16.0022 5.55335 16.0129 5.57065 16.0202C5.58794 16.0275 5.60652 16.0312 5.62529 16.0312H6.60966C6.68525 16.0312 6.74853 15.9715 6.75029 15.8959C6.78369 14.8764 7.19677 13.9219 7.92275 13.1976C8.29425 12.8242 8.73612 12.5281 9.22281 12.3265C9.7095 12.125 10.2313 12.022 10.7581 12.0234C11.8286 12.0234 12.8358 12.44 13.5935 13.1976C14.3177 13.9219 14.7308 14.8764 14.7659 15.8959C14.7677 15.9715 14.831 16.0312 14.9065 16.0312H15.8909C15.9097 16.0312 15.9283 16.0275 15.9456 16.0202C15.9628 16.0129 15.9785 16.0022 15.9916 15.9888C16.0047 15.9754 16.015 15.9595 16.0219 15.942C16.0287 15.9245 16.032 15.9059 16.0315 15.8871C15.9964 14.5336 15.4515 13.2644 14.4882 12.3029ZM10.7581 10.7578C10.1569 10.7578 9.59091 10.524 9.16728 10.0986C8.95468 9.88769 8.78674 9.6361 8.67349 9.35886C8.56024 9.08162 8.50399 8.7844 8.5081 8.48495C8.51337 7.90838 8.74365 7.35116 9.14619 6.93807C9.56806 6.50565 10.1323 6.26483 10.7353 6.2578C11.3311 6.25252 11.9095 6.48456 12.3349 6.90116C12.7708 7.32831 13.0099 7.89959 13.0099 8.5078C13.0099 9.10897 12.7761 9.67323 12.3507 10.0986C12.142 10.3083 11.8938 10.4745 11.6204 10.5877C11.347 10.7008 11.054 10.7587 10.7581 10.7578ZM6.35478 8.97186C6.33896 8.81893 6.33017 8.66424 6.33017 8.5078C6.33017 8.22831 6.35654 7.95584 6.40576 7.69041C6.41806 7.62713 6.38466 7.56209 6.32666 7.53573C6.08759 7.4285 5.86787 7.28084 5.67802 7.09452C5.45432 6.87762 5.27829 6.61647 5.16116 6.32773C5.04404 6.03899 4.98838 5.72901 4.99775 5.41756C5.01357 4.85331 5.24033 4.31717 5.63584 3.91288C6.07002 3.46815 6.65361 3.22557 7.27412 3.2326C7.83486 3.23788 8.37627 3.45409 8.78584 3.83729C8.9247 3.96737 9.04423 4.11151 9.14443 4.2662C9.17959 4.32069 9.24814 4.34354 9.30791 4.32245C9.61728 4.21522 9.94423 4.13963 10.28 4.10448C10.3784 4.09393 10.4347 3.98846 10.3907 3.90057C9.81943 2.7703 8.65224 1.98983 7.30224 1.96874C5.35283 1.93885 3.72861 3.5367 3.72861 5.4826C3.72861 6.58651 4.23662 7.57088 5.03291 8.216C4.47392 8.4744 3.95888 8.83123 3.5124 9.27772C2.54912 10.2392 2.00419 11.5084 1.96904 12.8637C1.96857 12.8824 1.97186 12.9011 1.97872 12.9186C1.98557 12.936 1.99586 12.9519 2.00896 12.9654C2.02207 12.9788 2.03773 12.9895 2.05502 12.9968C2.07232 13.0041 2.0909 13.0078 2.10966 13.0078H3.0958C3.17138 13.0078 3.23466 12.948 3.23642 12.8724C3.26982 11.8529 3.68291 10.8984 4.40888 10.1742C4.92568 9.65741 5.55849 9.29881 6.24931 9.12479C6.31787 9.10721 6.36357 9.04217 6.35478 8.97186Z" fill="#6E717D"/>
</svg>
