<svg width="32" height="33" viewBox="0 0 32 33" fill="none" xmlns="http://www.w3.org/2000/svg">
<path d="M28.0865 14.3643C28.0865 14.3643 30.7205 14.4956 30.7205 12.9472C30.7205 10.9232 27.2137 9.09945 27.2137 9.09945C27.2137 9.09945 27.7643 7.93263 28.1053 7.28196C28.4494 6.63129 29.4129 4.08804 29.5005 3.50619C29.61 2.77731 29.4442 2.54895 29.4442 2.54895C29.2064 4.11307 26.66 8.61458 26.4567 8.76786C23.9729 7.60416 20.5631 7.27883 20.5631 7.27883C20.5631 7.27883 17.2222 0.246582 14.0815 0.246582C10.9657 0.246582 10.9814 6.26841 10.9814 6.26841C10.9814 6.26841 10.1024 4.5604 8.99809 4.5604C7.38393 4.5604 6.85213 7.00354 6.85213 9.65315C3.66447 9.65315 0.980458 10.3664 0.742713 10.4352C0.50184 10.504 -0.252062 11.0515 0.0889145 10.9826C0.786508 10.7605 4.06489 10.2538 6.93347 10.5009C7.08988 13.0191 8.56014 16.2975 8.56014 16.2975C8.56014 16.2975 5.41002 20.8647 5.41002 24.1243C5.41002 24.9846 5.7291 26.6738 7.99393 26.6738C9.88964 26.6738 12.07 25.4131 12.4704 25.1816C12.1201 25.6822 11.8604 26.63 11.8604 27.068C11.8604 27.2713 11.9418 27.6905 12.2765 28.0127C12.8114 27.4809 13.3369 26.9522 13.9876 26.3047C13.2869 26.1764 13.193 25.6571 13.193 25.5226C13.193 25.0534 13.559 24.4966 13.559 24.4966C13.559 24.4966 15.2639 23.3454 15.3703 23.2234L16.6278 25.5695C16.6278 25.5695 15.339 26.3328 14.3286 26.3328C14.2003 26.3328 14.0877 26.3235 13.9876 26.3047C13.3369 26.9522 12.8114 27.4809 12.2765 28.0127C12.5267 28.2536 12.9146 28.4381 13.534 28.4381C15.411 28.4381 17.51 26.9991 17.51 26.9991C17.51 26.9991 19.4902 30.29 21.1794 31.7978C21.6361 32.2045 22.0741 32.2796 22.0741 32.2796C22.0741 32.2796 20.3911 30.6592 18.1763 26.4892C20.2347 25.2161 22.3775 22.2161 22.3775 22.2161C22.3775 22.2161 22.6309 22.2223 24.586 22.2223C27.6486 22.2223 31.9999 21.5779 31.9999 19.1442C31.9999 16.6322 28.0865 14.3643 28.0865 14.3643ZM28.4306 12.8502C28.4306 13.7386 27.5829 13.7292 27.5829 13.7292L26.9416 13.7699L24.9833 12.8283C24.9833 12.8283 26.1282 11.064 26.3973 10.5697C26.6006 10.6886 28.4306 11.8335 28.4306 12.8502ZM9.90841 6.54369C10.3651 6.54369 10.8156 7.10052 11.0002 7.57288C11.0002 7.88258 11.1628 9.7032 11.1628 9.7032L8.51948 9.60623C8.51948 7.21939 9.45169 6.54369 9.90841 6.54369ZM9.63625 23.1014C8.19101 23.1014 7.89383 22.2974 7.89383 21.5717C7.89383 19.9294 9.20143 17.6364 9.20143 17.6364C9.20143 17.6364 10.6686 20.7239 13.2306 22.0253C11.9605 22.7729 10.9094 23.1014 9.63625 23.1014ZM17.485 25.0534C16.8687 23.9742 16.4151 22.848 16.4151 22.848C16.4151 22.848 18.9458 23.0138 20.3066 21.6061C19.4589 21.9877 18.1075 22.4695 16.534 22.3225L23.3629 15.1588C23.2221 14.9899 22.4807 14.4706 22.2993 14.383C21.3202 15.5624 17.5131 19.6353 13.9876 21.6499C9.52363 19.2161 8.58517 12.0494 8.49132 10.5635L10.9282 10.7981C10.9282 10.7981 10.0116 12.4216 10.0116 13.6166C10.0116 14.8116 10.1555 14.8773 10.1555 14.8773C10.1555 14.8773 10.1243 12.7908 11.41 11.1828C12.3922 16.4007 13.412 19.0754 14.2097 20.6708C14.6164 20.5018 15.3734 20.1671 15.3734 20.1671C15.3734 20.1671 13.1211 13.6729 13.2462 9.27776C13.9563 8.89925 14.9073 8.51448 15.9897 8.31427C15.9646 8.03273 15.9052 7.75119 15.7832 7.47278C14.9636 7.6636 14.0846 7.96704 13.2619 8.45191C13.3338 6.00251 14.1565 3.78773 15.6143 3.78773C17.0533 3.78773 19.1085 7.18498 19.1085 7.18498C19.1085 7.18498 17.5913 7.05047 15.7832 7.46965C15.9052 7.75119 15.9646 8.03273 15.9897 8.31427C16.4652 8.22668 16.9657 8.17037 17.485 8.17037C21.9771 8.17037 25.5871 10.1036 25.5871 10.1036L24.1762 12.0775C24.1762 12.0775 22.9156 9.79705 21.1387 9.39038C22.0772 10.088 23.1251 11.0139 23.6726 12.3434C19.95 10.8857 15.4579 10.1193 14.0158 9.95033C13.8906 10.4821 13.9063 11.2423 13.9063 11.2423C13.9063 11.2423 19.9312 12.3528 24.3139 14.8616C24.2857 20.3517 18.3108 24.5623 17.485 25.0534ZM23.1908 20.9523C23.1908 20.9523 25.0646 18.4966 25.0334 15.2464C25.0334 15.2464 28.0521 17.1171 28.0521 18.944C28.0552 20.9836 23.1908 20.9523 23.1908 20.9523Z" fill="#3C9AE8"/>
<path d="M11.86 27.0676C11.86 26.6327 12.1196 25.6817 12.4669 25.1812C13.0581 24.8841 13.5586 24.4962 13.5586 24.4962C13.5586 24.4962 13.1895 25.053 13.1895 25.5222C13.1895 25.6567 13.2833 26.176 13.9841 26.3043C14.0842 26.323 14.1968 26.3324 14.325 26.3324C15.3386 26.3324 16.6243 25.5691 16.6243 25.5691C12.4888 29.2761 11.86 27.1207 11.86 27.0676ZM12.5294 20.5859L12.4794 20.6078L12.4199 20.6453C12.1853 20.783 11.9663 20.8956 11.7505 20.9957C12.1947 21.3898 12.6858 21.7496 13.2302 22.0249C13.4648 21.9122 13.8214 21.7371 13.9872 21.6526C13.4523 21.3585 12.9674 20.9957 12.5294 20.5859ZM8.33136 22.7037C7.99663 22.4034 7.8934 21.9779 7.8934 21.5713C7.8934 19.9289 9.201 17.636 9.201 17.636L8.55972 16.3002C8.55972 16.3002 5.31888 21.174 8.32197 22.7256C8.32823 22.7068 8.3251 22.7224 8.33136 22.7037ZM28.0016 19.2939C27.4761 20.98 23.1904 20.9519 23.1904 20.9519L22.3771 22.2157C22.3771 22.2157 22.618 22.2219 24.2759 22.2251C24.2759 22.2251 27.6732 21.9466 28.0016 19.2939ZM24.2102 16.6193C24.2102 16.6193 24.4855 16.7976 24.8515 17.0791C24.9672 16.5067 25.0392 15.8935 25.0329 15.246C24.8734 15.149 24.4667 14.9332 24.3166 14.8644C24.3134 15.4462 24.2321 16.0093 24.107 16.5598C24.1476 16.5849 24.1852 16.6068 24.2102 16.6193ZM28.4302 12.8498C28.4302 13.7382 27.5824 13.7288 27.5824 13.7288L26.9412 13.7695L28.0861 14.3607C31.7836 14.2106 28.9401 11.3326 26.3968 10.5693C26.6002 10.6882 28.4302 11.8331 28.4302 12.8498ZM15.1634 3.86865C15.3073 3.82173 15.4543 3.79044 15.6139 3.79044C17.0528 3.79044 19.1081 7.18769 19.1081 7.18769L20.5627 7.27841C20.5627 7.27841 20.228 6.57769 19.6743 5.62045C18.9141 4.38793 16.5711 3.16167 15.1634 3.86865ZM9.76095 5.20127C8.33448 5.05112 8.37828 9.15535 8.51905 9.60581C8.51905 7.2221 9.45126 6.54328 9.90798 6.54328C10.3647 6.54328 10.8152 7.1001 10.9997 7.57246C10.9778 6.86861 10.981 6.268 10.981 6.268C10.981 6.268 10.4116 5.3264 9.76095 5.20127ZM14.8631 8.51719C14.8693 8.23878 14.8975 7.97601 14.9288 7.71636C14.3688 7.8978 13.8026 8.13242 13.2614 8.4515C13.2458 8.78622 13.2646 8.9395 13.2458 9.28047C13.6931 9.0396 14.2468 8.80498 14.86 8.60791C14.86 8.57975 14.86 8.5516 14.8631 8.51719ZM17.4689 25.053C16.8526 23.9737 16.3959 22.8476 16.3959 22.8476C16.3959 22.8476 18.9298 23.0134 20.2906 21.6057C19.4397 21.9873 18.0914 22.4691 16.5148 22.322C16.1832 22.6693 15.7828 22.9352 15.3511 23.223L16.6086 25.5691C16.6086 25.5691 17.5659 24.9935 17.4689 25.053ZM18.1571 26.4888C18.3511 26.37 17.4908 26.9987 17.4908 26.9987C17.4908 26.9987 19.4678 30.2896 21.1602 31.7974C21.6169 32.2041 22.0517 32.2792 22.0517 32.2792C22.0517 32.2792 20.3719 30.6588 18.1571 26.4888ZM29.4437 2.54541C29.206 4.10952 26.6596 8.61416 26.4594 8.76745C26.2091 8.6517 27.2164 9.09591 27.2164 9.09591C27.2164 9.09591 27.7639 7.93221 28.108 7.27841C28.449 6.62774 29.4156 4.08762 29.5 3.50578C29.6095 2.7769 29.4437 2.54541 29.4437 2.54541ZM25.5898 10.1063L24.1758 12.0802C24.1758 12.0802 22.9151 9.79976 21.1383 9.39309C21.8547 9.92802 22.6336 10.5943 23.2061 11.4702C23.2061 11.4671 23.2061 11.4608 23.2061 11.4577C23.2061 11.4608 23.2061 11.4671 23.2061 11.4702C23.3844 11.7424 23.5439 12.0302 23.6722 12.3461C24.4073 12.6245 25.0455 12.8529 24.9829 12.8279C24.9829 12.8279 26.1278 11.0636 26.3968 10.5693C26.4719 10.6131 25.5898 10.1063 25.5898 10.1063ZM11.1624 9.70591L8.51905 9.60581C8.47525 9.87171 8.4909 10.2909 8.4909 10.563L10.9278 10.7977C10.9278 10.7977 10.0143 12.4212 10.0143 13.6193C10.0143 14.8143 10.1551 14.8769 10.1551 14.8769C10.1551 14.8769 10.1301 13.025 11.2031 11.464C11.1999 11.4608 11.1968 11.4608 11.1968 11.4577C11.1999 11.4608 11.2031 11.464 11.2031 11.464C11.2688 11.3701 11.3376 11.2763 11.4127 11.1824C11.2437 10.2408 11.1624 9.70591 11.1624 9.70591ZM6.85171 9.65273C3.66405 9.65273 0.98003 10.366 0.739157 10.4348C0.498284 10.5036 -0.255618 11.051 0.0884866 10.9822C0.786081 10.7601 4.06446 10.2534 6.93304 10.5036C6.8736 9.97181 6.85171 9.65273 6.85171 9.65273Z" fill="#3C9AE8"/>
</svg>
