<svg width="33" height="33" viewBox="0 0 33 33" fill="none" xmlns="http://www.w3.org/2000/svg">
<path d="M28.5956 14.7895C28.5956 14.7895 31.2305 14.9209 31.2305 13.3719C31.2305 11.3473 27.7225 9.5229 27.7225 9.5229C27.7225 9.5229 28.2733 8.35567 28.6144 7.70478C28.9586 7.05388 29.9224 4.50977 30.01 3.92772C30.1196 3.19859 29.9537 2.97015 29.9537 2.97015C29.7159 4.5348 27.1686 9.03786 26.9652 9.19119C24.4806 8.02709 21.0696 7.70165 21.0696 7.70165C21.0696 7.70165 17.7276 0.666992 14.5857 0.666992C11.469 0.666992 11.4846 6.69088 11.4846 6.69088C11.4846 6.69088 10.6053 4.98229 9.50064 4.98229C7.88593 4.98229 7.35395 7.42627 7.35395 10.0768C4.16519 10.0768 1.48026 10.7903 1.24243 10.8591C1.00148 10.9279 0.247317 11.4756 0.58841 11.4067C1.28624 11.1846 4.56574 10.6776 7.43531 10.9248C7.59177 13.4439 9.06254 16.7234 9.06254 16.7234C9.06254 16.7234 5.91134 21.2922 5.91134 24.5529C5.91134 25.4135 6.23053 27.1033 8.49614 27.1033C10.3925 27.1033 12.5736 25.8422 12.9742 25.6106C12.6237 26.1113 12.3639 27.0595 12.3639 27.4976C12.3639 27.701 12.4453 28.1203 12.7801 28.4426C13.3153 27.9106 13.841 27.3818 14.4919 26.734C13.7909 26.6057 13.697 26.0863 13.697 25.9517C13.697 25.4823 14.0632 24.9253 14.0632 24.9253C14.0632 24.9253 15.7686 23.7737 15.875 23.6517L17.133 25.9986C17.133 25.9986 15.8437 26.7622 14.833 26.7622C14.7047 26.7622 14.592 26.7528 14.4919 26.734C13.841 27.3818 13.3153 27.9106 12.7801 28.4426C13.0305 28.6836 13.4185 28.8682 14.0381 28.8682C15.9157 28.8682 18.0155 27.4287 18.0155 27.4287C18.0155 27.4287 19.9963 30.7207 21.6861 32.2291C22.143 32.6359 22.5811 32.711 22.5811 32.711C22.5811 32.711 20.8975 31.09 18.682 26.9186C20.7411 25.645 22.8846 22.644 22.8846 22.644C22.8846 22.644 23.1381 22.6503 25.0939 22.6503C28.1575 22.6503 32.5103 22.0057 32.5103 19.5711C32.5103 17.0582 28.5956 14.7895 28.5956 14.7895ZM28.9398 13.2749C28.9398 14.1636 28.0918 14.1543 28.0918 14.1543L27.4503 14.1949L25.4913 13.253C25.4913 13.253 26.6367 11.4881 26.9058 10.9937C27.1092 11.1126 28.9398 12.2579 28.9398 13.2749ZM10.4113 6.96626C10.8681 6.96626 11.3188 7.52328 11.5034 7.9958C11.5034 8.3056 11.6661 10.1269 11.6661 10.1269L9.02186 10.0298C9.02186 7.64219 9.95439 6.96626 10.4113 6.96626ZM10.139 23.5296C8.69328 23.5296 8.396 22.7254 8.396 21.9994C8.396 20.3565 9.70405 18.0627 9.70405 18.0627C9.70405 18.0627 11.1717 21.1514 13.7346 22.4531C12.4641 23.201 11.4126 23.5296 10.139 23.5296ZM17.9904 25.4823C17.3739 24.4027 16.9202 23.2761 16.9202 23.2761C16.9202 23.2761 19.4518 23.442 20.813 22.0338C19.965 22.4156 18.6131 22.8975 17.0391 22.7504L23.8704 15.5843C23.7295 15.4154 22.9879 14.8959 22.8064 14.8083C21.8269 15.988 18.0186 20.0624 14.4919 22.0776C10.0264 19.643 9.08758 12.4738 8.9937 10.9874L11.4314 11.2221C11.4314 11.2221 10.5145 12.8462 10.5145 14.0416C10.5145 15.237 10.6585 15.3027 10.6585 15.3027C10.6585 15.3027 10.6272 13.2155 11.9133 11.607C12.8959 16.8267 13.9161 19.5022 14.714 21.0982C15.1209 20.9292 15.8781 20.5943 15.8781 20.5943C15.8781 20.5943 13.6251 14.0979 13.7502 9.70127C14.4606 9.32262 15.4119 8.93772 16.4946 8.73744C16.4696 8.45581 16.4101 8.17417 16.2881 7.89566C15.4682 8.08655 14.5889 8.39009 13.7659 8.87513C13.8378 6.42489 14.6608 4.20935 16.1191 4.20935C17.5586 4.20935 19.6145 7.60777 19.6145 7.60777C19.6145 7.60777 18.0968 7.47321 16.2881 7.89253C16.4101 8.17417 16.4696 8.45581 16.4946 8.73744C16.9703 8.64982 17.471 8.5935 17.9904 8.5935C22.4841 8.5935 26.0953 10.5274 26.0953 10.5274L24.684 12.502C24.684 12.502 23.4229 10.2207 21.6454 9.81392C22.5842 10.5118 23.6325 11.438 24.1802 12.768C20.4563 11.3097 15.9626 10.543 14.52 10.3741C14.3949 10.906 14.4105 11.6665 14.4105 11.6665C14.4105 11.6665 20.4375 12.7774 24.8217 15.2871C24.7935 20.779 18.8166 24.991 17.9904 25.4823ZM23.6983 21.3798C23.6983 21.3798 25.5727 18.9233 25.5414 15.672C25.5414 15.672 28.5612 17.5433 28.5612 19.3708C28.5643 21.4111 23.6983 21.3798 23.6983 21.3798Z" fill="white"/>
<path d="M12.3641 27.4964C12.3641 27.0614 12.6238 26.1101 12.9711 25.6094C13.5626 25.3121 14.0633 24.9241 14.0633 24.9241C14.0633 24.9241 13.694 25.4811 13.694 25.9505C13.694 26.0851 13.7879 26.6045 14.4888 26.7328C14.589 26.7516 14.7016 26.761 14.8299 26.761C15.8438 26.761 17.13 25.9974 17.13 25.9974C12.993 29.7056 12.3641 27.5496 12.3641 27.4964ZM13.0337 21.0125L12.9837 21.0344L12.9242 21.0719C12.6895 21.2096 12.4705 21.3223 12.2545 21.4224C12.6989 21.8167 13.1902 22.1766 13.7347 22.4519C13.9694 22.3393 14.3261 22.164 14.492 22.0796C13.9569 21.7854 13.4718 21.4224 13.0337 21.0125ZM8.83421 23.131C8.49937 22.8306 8.39611 22.405 8.39611 21.9982C8.39611 20.3553 9.70415 18.0615 9.70415 18.0615L9.06265 16.7253C9.06265 16.7253 5.8207 21.6008 8.82482 23.1529C8.83108 23.1341 8.82795 23.1498 8.83421 23.131ZM28.5112 19.7201C27.9855 21.4068 23.6984 21.3786 23.6984 21.3786L22.8847 22.6428C22.8847 22.6428 23.1257 22.6491 24.7842 22.6522C24.7842 22.6522 28.1826 22.3737 28.5112 19.7201ZM24.7185 17.0445C24.7185 17.0445 24.9939 17.2229 25.36 17.5045C25.4758 16.9319 25.5478 16.3185 25.5415 15.6708C25.3819 15.5737 24.9751 15.3578 24.8249 15.289C24.8218 15.871 24.7404 16.4343 24.6152 16.9851C24.6559 17.0101 24.6935 17.032 24.7185 17.0445ZM28.9399 13.2737C28.9399 14.1624 28.0919 14.1531 28.0919 14.1531L27.4504 14.1937L28.5957 14.7852C32.2945 14.635 29.45 11.756 26.9059 10.9925C27.1093 11.1114 28.9399 12.2567 28.9399 13.2737ZM15.6686 4.28951C15.8125 4.24257 15.9596 4.21128 16.1192 4.21128C17.5587 4.21128 19.6146 7.60969 19.6146 7.60969L21.0698 7.70044C21.0698 7.70044 20.7349 6.99948 20.181 6.04192C19.4206 4.80898 17.0768 3.58229 15.6686 4.28951ZM10.2643 5.62259C8.83734 5.47239 8.88115 9.57802 9.02197 10.0286C9.02197 7.64412 9.9545 6.96506 10.4114 6.96506C10.8683 6.96506 11.3189 7.52207 11.5035 7.9946C11.4816 7.29051 11.4847 6.68968 11.4847 6.68968C11.4847 6.68968 10.9152 5.74776 10.2643 5.62259ZM15.3682 8.93964C15.3744 8.66114 15.4026 8.39828 15.4339 8.13854C14.8737 8.32004 14.3073 8.55474 13.766 8.87393C13.7503 9.20876 13.7691 9.3621 13.7503 9.70319C14.1978 9.46224 14.7517 9.22754 15.365 9.03039C15.365 9.00223 15.365 8.97407 15.3682 8.93964ZM17.9749 25.4811C17.3584 24.4015 16.9015 23.2749 16.9015 23.2749C16.9015 23.2749 19.4363 23.4408 20.7975 22.0326C19.9463 22.4144 18.5976 22.8963 17.0204 22.7492C16.6887 23.0966 16.2882 23.3626 15.8563 23.6505L17.1143 25.9974C17.1143 25.9974 18.0719 25.4216 17.9749 25.4811ZM18.6633 26.9174C18.8573 26.7985 17.9968 27.4275 17.9968 27.4275C17.9968 27.4275 19.9745 30.7195 21.6674 32.2279C22.1243 32.6347 22.5593 32.7098 22.5593 32.7098C22.5593 32.7098 20.8789 31.0888 18.6633 26.9174ZM29.9538 2.96582C29.716 4.53047 27.1687 9.03665 26.9685 9.18999C26.7181 9.0742 27.7258 9.51856 27.7258 9.51856C27.7258 9.51856 28.2734 8.35447 28.6176 7.70044C28.9587 7.04955 29.9257 4.50856 30.0101 3.92651C30.1197 3.19739 29.9538 2.96582 29.9538 2.96582ZM26.0985 10.5293L24.6841 12.5039C24.6841 12.5039 23.423 10.2227 21.6455 9.81585C22.3622 10.351 23.1413 11.0175 23.714 11.8937C23.714 11.8906 23.714 11.8843 23.714 11.8812C23.714 11.8843 23.714 11.8906 23.714 11.8937C23.8924 12.1659 24.052 12.4538 24.1803 12.7699C24.9157 13.0484 25.554 13.2768 25.4914 13.2518C25.4914 13.2518 26.6368 11.4869 26.9059 10.9925C26.981 11.0363 26.0985 10.5293 26.0985 10.5293ZM11.6662 10.1288L9.02197 10.0286C8.97816 10.2946 8.9938 10.714 8.9938 10.9862L11.4315 11.2209C11.4315 11.2209 10.5178 12.845 10.5178 14.0435C10.5178 15.2389 10.6586 15.3015 10.6586 15.3015C10.6586 15.3015 10.6336 13.449 11.7069 11.8874C11.7038 11.8843 11.7006 11.8843 11.7006 11.8812C11.7038 11.8843 11.7069 11.8874 11.7069 11.8874C11.7726 11.7936 11.8415 11.6997 11.9166 11.6058C11.7476 10.6639 11.6662 10.1288 11.6662 10.1288ZM7.35405 10.0756C4.1653 10.0756 1.48037 10.7891 1.23941 10.8579C0.998455 10.9267 0.244295 11.4744 0.588517 11.4055C1.28635 11.1833 4.56585 10.6764 7.43541 10.9267C7.37596 10.3948 7.35405 10.0756 7.35405 10.0756Z" fill="white"/>
</svg>
