<svg width="42" height="37" viewBox="0 0 42 37" fill="none" xmlns="http://www.w3.org/2000/svg">
<path fill-rule="evenodd" clip-rule="evenodd" d="M40.9163 1.52312C40.7301 1.01541 40.4509 0.609249 39.9855 0.304626C39.6131 0.101544 39.2408 0 38.7754 0H32.4457C31.4218 0 30.6771 0.609243 30.3048 1.21849L22.3926 15.5358C22.4857 15.6373 22.5788 15.7389 22.6719 15.8404C23.0442 16.2466 23.2304 16.2466 23.2304 16.2466H24.1612L31.8872 2.33545C31.9803 2.23391 32.1664 1.92928 32.5388 1.92928H38.8685C38.9616 1.92928 39.0546 1.92928 39.0546 2.03082C39.0546 2.03082 39.1477 2.13236 39.2408 2.2339C39.2408 2.33544 39.2408 2.43699 39.2408 2.43699C39.2408 2.43699 39.2408 2.53852 39.2408 2.64006L32.7249 14.3173C32.9111 14.3173 33.1904 14.3173 33.4696 14.3173H33.935C34.3074 14.3173 34.5866 14.3173 34.8659 14.4188L40.8232 3.75701L40.9163 3.65547C41.1025 3.24931 41.1956 2.84315 41.1956 2.43699C41.1025 2.13236 41.0094 1.82774 40.9163 1.52312ZM10.2918 28.0253C10.1987 28.1269 9.91943 28.4315 9.64018 28.4315H3.40358C3.31049 28.4315 3.12432 28.4315 3.03124 28.2284C3.03124 28.1269 2.93816 27.9238 3.03124 27.7207L17.0869 2.43699C17.18 2.33544 17.3661 2.03082 17.7385 2.03082H24.0682C24.2543 2.03082 24.2543 2.03082 24.3474 2.13236C24.3474 2.13236 24.4405 2.23391 24.4405 2.33545C24.4405 2.43699 24.4405 2.53853 24.4405 2.53853C24.4405 2.64007 24.4405 2.64006 24.3474 2.7416L17.8316 14.4188C18.1108 14.3173 18.297 14.3173 18.5762 14.3173H19.0416C19.3209 14.3173 19.6932 14.3173 19.9725 14.4188L25.8368 3.75701L25.9298 3.65547C26.0229 3.35085 26.116 3.04623 26.2091 2.84315C26.3022 2.43699 26.2091 2.03082 26.116 1.62465L25.9298 1.21849C25.8367 1.11695 25.6506 0.710789 25.2782 0.406166C24.9059 0.101543 24.4405 0 23.882 0H17.5523C16.5284 0 15.7837 0.609243 15.4114 1.21849L1.26265 26.7053C0.890315 27.4161 0.890315 28.3299 1.26265 29.1423C1.63498 29.9546 2.37966 30.4623 3.3105 30.4623H9.64018C10.571 30.4623 11.4088 29.8531 11.7811 29.2438L12.3396 28.3299L13.8289 21.6282L10.2918 28.0253ZM35.8898 17.9728C35.7036 17.0589 34.7728 16.3481 33.935 16.3481H33.4696C32.6319 16.3481 31.7941 16.6527 31.2356 17.1604C31.1425 17.262 31.1425 17.262 31.0494 17.3635C30.4909 17.8712 29.9324 18.3789 29.1878 18.3789H23.4166C23.3235 18.3789 23.3235 18.3789 23.2304 18.3789C22.5788 18.2774 22.0203 17.8712 21.5549 17.3635C20.9033 16.7543 20.0656 16.3481 19.1347 16.3481H18.6693C17.7385 16.3481 16.9007 17.0589 16.7145 17.9728L15.6906 22.339L13.3635 32.29C12.805 34.5239 14.3875 36.5548 16.5284 36.5548C17.8316 36.5548 19.0416 35.844 19.7863 34.727L21.3687 32.1885C21.7411 31.6808 22.2996 31.2746 22.9512 31.2746H29.8393C30.4909 31.2746 31.0494 31.5793 31.3287 32.1885L32.9111 34.727C33.6558 35.844 34.8659 36.5548 36.076 36.5548C38.31 36.5548 39.7993 34.5239 39.2408 32.29L35.8898 17.9728ZM24.8128 25.9945H22.6719V28.3299H20.531V25.9945H18.3901V23.6591H20.531V21.3236H22.6719V23.6591H24.8128V25.9945ZM31.0494 28.4315C29.8393 28.4315 28.7223 27.6192 28.1638 26.5022C27.8846 25.9945 27.7915 25.4868 27.7915 24.8775C27.7915 22.9483 29.1878 21.3236 31.0494 21.3236C32.818 21.3236 34.3074 22.8467 34.3074 24.8775C34.2143 26.8068 32.818 28.4315 31.0494 28.4315Z" fill="white"/>
</svg>
