<svg width="42" height="37" viewBox="0 0 42 37" fill="none" xmlns="http://www.w3.org/2000/svg">
<path fill-rule="evenodd" clip-rule="evenodd" d="M21.4756 28.042H18.2102C18.1169 28.042 17.837 28.042 17.7437 27.7416C17.7437 27.6414 17.7437 27.5413 17.7437 27.5413C17.7437 27.4411 17.837 27.341 17.837 27.341L19.3297 24.7371C18.9565 24.036 18.6766 23.2348 18.49 22.4336L16.2509 26.3395L16.1576 26.4396C16.0643 26.6399 15.971 26.8402 15.8777 27.2408C15.7844 27.7416 15.8777 28.2423 15.971 28.6429C16.3442 29.7446 17.3705 30.1452 18.1168 30.1452H22.5952C22.4086 29.6444 22.1287 29.1437 21.8488 28.7431L21.4756 28.042ZM25.8607 3.70555C25.954 3.4051 26.0473 3.2048 26.1406 2.90435C26.2339 2.50375 26.1406 2.10315 26.0473 1.70255L25.8607 1.30195C25.7674 1.2018 25.5808 0.8012 25.2076 0.50075C24.8344 0.2003 24.3679 0 23.8081 0H17.4638C16.4375 0 15.6911 0.600897 15.3179 1.2018L1.22961 26.4396C0.856407 27.1407 0.856407 28.042 1.22961 28.8432C1.6028 29.6444 2.3492 30.1452 3.2822 30.1452H9.62658C10.5596 30.1452 11.3993 29.5443 11.7725 28.9434L25.8607 3.70555ZM24.1813 2.70405L10.1864 27.6414C10.0931 27.7416 9.90648 28.042 9.62658 28.042H3.2822C3.1889 28.042 3.0023 28.042 2.909 27.8417C2.909 27.7416 2.8157 27.5413 2.909 27.341L16.9973 2.30345C17.0906 2.2033 17.2772 1.90285 17.6504 1.90285H23.9947C24.1813 1.90285 24.1813 1.90285 24.2746 2.003C24.3679 2.003 24.3679 2.10315 24.3679 2.2033C24.3679 2.30345 24.3679 2.4036 24.3679 2.4036C24.3679 2.4036 24.2746 2.70405 24.1813 2.70405ZM40.882 1.50225C40.6954 1.0015 40.4155 0.600902 39.949 0.400602C39.6691 0.200302 39.2026 0 38.8294 0H32.485C31.4587 0 30.7123 0.600897 30.3391 1.2018L24.7411 11.2168C24.8344 11.2168 24.9277 11.2168 25.021 11.1167C25.6741 10.9164 26.3272 10.9164 26.9803 10.9164C27.0736 10.9164 27.0736 10.9164 27.1669 10.9164L31.9252 2.4036C32.0185 2.30345 32.2051 2.003 32.5783 2.003H38.9227C39.016 2.003 39.1093 2.003 39.1093 2.10315C39.1093 2.10315 39.2026 2.2033 39.2959 2.30345C39.2959 2.4036 39.2959 2.50375 39.2959 2.50375C39.2959 2.50375 39.2959 2.6039 39.2959 2.70405L33.1381 13.5203C33.6046 14.021 34.0711 14.5218 34.351 15.1227L40.7887 3.70555L40.882 3.6054C41.0686 3.30495 41.1619 2.90435 41.1619 2.50375C41.0686 2.2033 40.9753 1.8027 40.882 1.50225ZM36.217 23.0345C35.5639 22.3335 35.0041 21.5323 34.6309 20.6309L33.2314 17.326C33.2314 17.2258 33.1381 17.2258 33.1381 17.1257C32.8582 16.4246 32.485 15.8237 32.0185 15.323C31.9252 15.2228 31.9252 15.2228 31.8319 15.1227C31.0855 14.3215 30.2458 13.8207 29.4061 13.4201C28.2865 13.0195 27.0736 12.8192 25.954 13.0195C25.7674 13.0195 25.5808 13.1197 25.3942 13.1197C24.5545 13.32 23.8081 13.7206 23.0617 14.2213C22.5952 14.5218 22.222 14.9224 21.9421 15.323C20.9158 16.5248 20.356 17.9269 20.1694 19.5293C20.0761 20.6309 20.1694 21.7326 20.5426 22.8342C20.7292 23.5353 21.1024 24.1362 21.4756 24.8372L23.4349 27.6414C23.5282 27.8417 23.7148 28.042 23.8081 28.2423C24.1813 28.8432 24.4612 29.5443 24.6478 30.2453C24.6478 30.3455 24.6478 30.4456 24.7411 30.4456L24.8344 30.6459C25.021 31.347 25.2076 31.9479 25.4875 32.5488C25.954 33.4501 26.6071 34.3515 27.3535 34.9524C27.6334 35.1527 28.0066 35.4531 28.2865 35.6534C28.4731 35.7536 28.753 35.8537 28.9396 35.9539C29.2195 36.054 29.4994 36.1542 29.7793 36.2543C30.3391 36.4546 30.9922 36.5548 31.6453 36.5548C32.8582 36.5548 34.0711 36.2543 35.1907 35.5533C39.2026 33.0495 39.949 27.1407 36.5902 23.6354L36.217 23.0345ZM28.9396 24.036C28.6597 24.2363 28.2865 24.3365 28.0066 24.3365C27.7267 24.3365 27.3535 24.2363 27.0736 24.1362C26.7937 23.9359 26.5138 23.7356 26.3272 23.335L25.3942 21.6324C24.9277 20.6309 25.2076 19.4291 26.0473 18.9284C26.3272 18.7281 26.7004 18.6279 26.9803 18.6279C27.6334 18.6279 28.2865 19.0285 28.5664 19.6294L29.0329 20.5308L29.4994 21.4321C30.1525 22.2333 29.7793 23.5353 28.9396 24.036Z" fill="white"/>
<path fill-rule="evenodd" clip-rule="evenodd" d="M34.6309 20.6309C35.0041 21.5323 35.5639 22.3335 36.217 23.0345L36.5902 23.6354C39.949 27.1407 39.2026 33.0495 35.1907 35.5533C34.0711 36.2543 32.8582 36.5548 31.6453 36.5548C30.9922 36.5548 30.3391 36.4546 29.7793 36.2543L28.9396 35.9539C28.8463 35.9038 28.7297 35.8537 28.6131 35.8036C28.4964 35.7536 28.3798 35.7035 28.2865 35.6534C28.1466 35.5533 27.9833 35.4281 27.82 35.3029C27.6567 35.1777 27.4935 35.0525 27.3535 34.9524C26.6071 34.3515 25.954 33.4501 25.4875 32.5488C25.2076 31.9479 25.021 31.347 24.8344 30.6459L24.7411 30.4456C24.6478 30.4456 24.6478 30.3455 24.6478 30.2453C24.4612 29.5443 24.1813 28.8432 23.8081 28.2423C23.7615 28.1422 23.6915 28.042 23.6215 27.9419C23.5516 27.8417 23.4816 27.7416 23.4349 27.6414L21.4756 24.8372C21.4066 24.7076 21.3376 24.5813 21.2698 24.4573C20.9708 23.9105 20.6947 23.4056 20.5426 22.8342C20.1694 21.7326 20.0761 20.6309 20.1694 19.5293C20.356 17.9269 20.9158 16.5248 21.9421 15.323C22.222 14.9224 22.5952 14.5218 23.0617 14.2213C23.8081 13.7206 24.5545 13.32 25.3942 13.1197C25.4875 13.1197 25.5808 13.0946 25.6741 13.0696C25.7674 13.0445 25.8607 13.0195 25.954 13.0195C27.0736 12.8192 28.2865 13.0195 29.4061 13.4201C30.2458 13.8207 31.0855 14.3215 31.8319 15.1227L32.0185 15.323C32.485 15.8237 32.8582 16.4246 33.1381 17.1257C33.1381 17.1757 33.1614 17.2008 33.1848 17.2258C33.2081 17.2508 33.2314 17.2759 33.2314 17.326L34.6309 20.6309ZM28.0066 24.3365C28.2865 24.3365 28.6597 24.2363 28.9396 24.036C29.7793 23.5353 30.1525 22.2333 29.4994 21.4321L29.0329 20.5308L28.5664 19.6294C28.2865 19.0285 27.6334 18.6279 26.9803 18.6279C26.7004 18.6279 26.3272 18.7281 26.0473 18.9284C25.2076 19.4291 24.9277 20.6309 25.3942 21.6324L26.3272 23.335C26.5138 23.7356 26.7937 23.9359 27.0736 24.1362C27.3535 24.2363 27.7267 24.3365 28.0066 24.3365Z" fill="url(#paint0_linear)"/>
<defs>
<linearGradient id="paint0_linear" x1="0.949707" y1="3.8078" x2="40.9117" y2="4.41875" gradientUnits="userSpaceOnUse">
<stop stop-color="#F39560"/>
<stop offset="1" stop-color="#E07A41"/>
</linearGradient>
</defs>
</svg>
