<svg width="41" height="37" viewBox="0 0 41 37" fill="none" xmlns="http://www.w3.org/2000/svg">
<path fill-rule="evenodd" clip-rule="evenodd" d="M20.5259 28.042H17.2604C17.1671 28.042 16.8872 28.042 16.7939 27.7416C16.7939 27.6414 16.7939 27.5413 16.7939 27.5413C16.7939 27.4411 16.8872 27.341 16.8872 27.341L18.38 24.7371C18.0068 24.036 17.7269 23.2348 17.5403 22.4336L15.3012 26.3395L15.2078 26.4396C15.1145 26.6399 15.0213 26.8402 14.928 27.2408C14.8347 27.7416 14.928 28.2423 15.0213 28.6429C15.3944 29.7446 16.4207 30.1452 17.1671 30.1452H21.6455C21.4589 29.6444 21.179 29.1437 20.8991 28.7431L20.5259 28.042ZM24.911 3.70555C25.0043 3.4051 25.0976 3.2048 25.1909 2.90435C25.2842 2.50375 25.1909 2.10315 25.0976 1.70255L24.911 1.30195C24.8177 1.2018 24.6311 0.8012 24.2579 0.50075C23.8847 0.2003 23.4182 0 22.8584 0H16.514C15.4877 0 14.7414 0.600897 14.3682 1.2018L0.279899 26.4396C-0.0932997 27.1407 -0.0932997 28.042 0.279899 28.8432C0.653098 29.6444 1.3995 30.1452 2.33249 30.1452H8.67687C9.60987 30.1452 10.4496 29.5443 10.8228 28.9434L24.911 3.70555ZM23.2316 2.70405L9.23667 27.6414C9.14337 27.7416 8.95677 28.042 8.67687 28.042H2.33249C2.23919 28.042 2.05259 28.042 1.95929 27.8417C1.95929 27.7416 1.86599 27.5413 1.95929 27.341L16.0475 2.30345C16.1408 2.2033 16.3274 1.90285 16.7006 1.90285H23.045C23.2316 1.90285 23.2316 1.90285 23.3249 2.003C23.4182 2.003 23.4182 2.10315 23.4182 2.2033C23.4182 2.30345 23.4182 2.4036 23.4182 2.4036C23.4182 2.4036 23.3249 2.70405 23.2316 2.70405ZM39.9323 1.50225C39.7457 1.0015 39.4658 0.600902 38.9993 0.400602C38.7194 0.200302 38.2529 0 37.8797 0H31.5353C30.509 0 29.7626 0.600897 29.3894 1.2018L23.7914 11.2168C23.8847 11.2168 23.978 11.2168 24.0713 11.1167C24.7244 10.9164 25.3775 10.9164 26.0306 10.9164C26.1239 10.9164 26.1239 10.9164 26.2172 10.9164L30.9755 2.4036C31.0688 2.30345 31.2554 2.003 31.6286 2.003H37.973C38.0663 2.003 38.1596 2.003 38.1596 2.10315C38.1596 2.10315 38.2529 2.2033 38.3462 2.30345C38.3462 2.4036 38.3462 2.50375 38.3462 2.50375C38.3462 2.50375 38.3462 2.6039 38.3462 2.70405L32.1884 13.5203C32.6549 14.021 33.1214 14.5218 33.4013 15.1227L39.839 3.70555L39.9323 3.6054C40.1189 3.30495 40.2122 2.90435 40.2122 2.50375C40.1189 2.2033 40.0256 1.8027 39.9323 1.50225ZM35.2673 23.0345C34.6142 22.3335 34.0544 21.5323 33.6812 20.6309L32.2817 17.326C32.2817 17.2258 32.1884 17.2258 32.1884 17.1257C31.9085 16.4246 31.5353 15.8237 31.0688 15.323C30.9755 15.2228 30.9755 15.2228 30.8822 15.1227C30.1358 14.3215 29.2961 13.8207 28.4564 13.4201C27.3368 13.0195 26.1239 12.8192 25.0043 13.0195C24.8177 13.0195 24.6311 13.1197 24.4445 13.1197C23.6048 13.32 22.8584 13.7206 22.112 14.2213C21.6455 14.5218 21.2723 14.9224 20.9924 15.323C19.9661 16.5248 19.4063 17.9269 19.2197 19.5293C19.1264 20.6309 19.2197 21.7326 19.5929 22.8342C19.7795 23.5353 20.1527 24.1362 20.5259 24.8372L22.4852 27.6414C22.5785 27.8417 22.7651 28.042 22.8584 28.2423C23.2316 28.8432 23.5115 29.5443 23.6981 30.2453C23.6981 30.3455 23.6981 30.4456 23.7914 30.4456L23.8847 30.6459C24.0713 31.347 24.2579 31.9479 24.5378 32.5488C25.0043 33.4501 25.6574 34.3515 26.4038 34.9524C26.6837 35.1527 27.0569 35.4531 27.3368 35.6534C27.5234 35.7536 27.8033 35.8537 27.9899 35.9539C28.2698 36.054 28.5497 36.1542 28.8296 36.2543C29.3894 36.4546 30.0425 36.5548 30.6956 36.5548C31.9085 36.5548 33.1214 36.2543 34.241 35.5533C38.2529 33.0495 38.9993 27.1407 35.6405 23.6354L35.2673 23.0345ZM27.9899 24.036C27.71 24.2363 27.3368 24.3365 27.0569 24.3365C26.777 24.3365 26.4038 24.2363 26.1239 24.1362C25.844 23.9359 25.5641 23.7356 25.3775 23.335L24.4445 21.6324C23.978 20.6309 24.2579 19.4291 25.0976 18.9284C25.3775 18.7281 25.7507 18.6279 26.0306 18.6279C26.6837 18.6279 27.3368 19.0285 27.6167 19.6294L28.0832 20.5308L28.5497 21.4321C29.2028 22.2333 28.8296 23.5353 27.9899 24.036Z" fill="white"/>
</svg>
